<svg xmlns="http://www.w3.org/2000/svg" width="116.666" height="53.38" viewBox="0 0 116.666 53.38">
  <g id="Group_511" data-name="Group 511" transform="translate(-1033.531 -324.893)">
    <g id="Group_437" data-name="Group 437" transform="translate(1033.531 324.893)">
      <path id="Path_1118" data-name="Path 1118" d="M1520.339,795.967a1.449,1.449,0,0,1-1.081.363,1.354,1.354,0,0,1-.99-.552l-6.181-7.923,2.131-2.083,6.333,8.081a1.532,1.532,0,0,1,.351,1.089,1.481,1.481,0,0,1-.564,1.026m-9.438-6.155-1.887-2.147,9.347-8.649a1.3,1.3,0,0,1,1.979.094,1.407,1.407,0,0,1,.4,1.042,1.486,1.486,0,0,1-.487,1.01Zm-1.431,6.313a1.434,1.434,0,0,1-1.081-.426,1.548,1.548,0,0,1-.411-1.121v-21.56a1.548,1.548,0,0,1,.411-1.121,1.584,1.584,0,0,1,2.161,0,1.548,1.548,0,0,1,.411,1.121v21.56a1.548,1.548,0,0,1-.411,1.121,1.435,1.435,0,0,1-1.081.426" transform="translate(-1507.979 -769.851)"/>
      <path id="Path_1119" data-name="Path 1119" d="M1532.946,807.2a1.48,1.48,0,0,1-1.111-.458,1.592,1.592,0,0,1-.441-1.152V784.353a1.58,1.58,0,0,1,.441-1.168,1.638,1.638,0,0,1,2.238,0,1.614,1.614,0,0,1,.426,1.168v21.242a1.626,1.626,0,0,1-.426,1.152,1.468,1.468,0,0,1-1.126.458" transform="translate(-1516.049 -773.736)"/>
      <path id="Path_1120" data-name="Path 1120" d="M1555.539,799.958a1.481,1.481,0,0,1-1.112-.457,1.6,1.6,0,0,1-.442-1.153v-7.765a5.952,5.952,0,0,0-.639-2.936,4.092,4.092,0,0,0-1.72-1.689,5.387,5.387,0,0,0-2.481-.552,4.951,4.951,0,0,0-2.314.537,4.382,4.382,0,0,0-1.644,1.437,3.6,3.6,0,0,0-.609,2.068h-1.918a6.736,6.736,0,0,1,3.47-6.029,7.217,7.217,0,0,1,3.623-.915,7.555,7.555,0,0,1,3.76.931,6.609,6.609,0,0,1,2.618,2.73,9.306,9.306,0,0,1,.959,4.42v7.765a1.594,1.594,0,0,1-.442,1.153,1.479,1.479,0,0,1-1.111.457m-12.513,0a1.48,1.48,0,0,1-1.111-.457,1.6,1.6,0,0,1-.442-1.153V784.269a1.581,1.581,0,0,1,.442-1.168,1.638,1.638,0,0,1,2.238,0,1.614,1.614,0,0,1,.426,1.168v14.078a1.627,1.627,0,0,1-.426,1.153,1.469,1.469,0,0,1-1.127.457" transform="translate(-1519.523 -773.653)"/>
      <path id="Path_1121" data-name="Path 1121" d="M1578.012,804.389a5.058,5.058,0,0,0,2.771-.773,5.4,5.4,0,0,0,1.917-2.131,6.511,6.511,0,0,0,.7-3.03,6.391,6.391,0,0,0-.7-3.03,5.452,5.452,0,0,0-1.917-2.1,5.319,5.319,0,0,0-5.526,0,5.524,5.524,0,0,0-1.949,2.1,6.275,6.275,0,0,0-.716,3.03,6.392,6.392,0,0,0,.716,3.03,5.465,5.465,0,0,0,1.949,2.131,5.075,5.075,0,0,0,2.755.773m0,2.841a8.088,8.088,0,0,1-4.277-1.152,8.383,8.383,0,0,1-3.015-3.141,9.026,9.026,0,0,1-1.111-4.482,9.581,9.581,0,0,1,1.02-4.467,8.08,8.08,0,0,1,2.786-3.125,7.139,7.139,0,0,1,3.989-1.153,7.228,7.228,0,0,1,3.319.773,7.54,7.54,0,0,1,2.557,2.1v-8.523a1.578,1.578,0,0,1,.442-1.168,1.636,1.636,0,0,1,2.237,0,1.61,1.61,0,0,1,.427,1.168v14.394a9.034,9.034,0,0,1-1.111,4.482,8.424,8.424,0,0,1-3,3.141,8.012,8.012,0,0,1-4.262,1.152" transform="translate(-1529.22 -773.635)"/>
      <path id="Path_1122" data-name="Path 1122" d="M1607.672,800.068a8.9,8.9,0,0,1-4.491-1.121,8.044,8.044,0,0,1-3.075-3.093,9.067,9.067,0,0,1-1.111-4.53,9.557,9.557,0,0,1,1.051-4.561,7.84,7.84,0,0,1,2.907-3.094,8.092,8.092,0,0,1,4.262-1.121,7.417,7.417,0,0,1,4.08,1.089,7.012,7.012,0,0,1,2.6,3,10.236,10.236,0,0,1,.9,4.4,1.347,1.347,0,0,1-.4.994,1.362,1.362,0,0,1-1,.395h-12.269V789.9H1613.3l-1.248.884a6.973,6.973,0,0,0-.609-2.825,4.753,4.753,0,0,0-1.644-1.973,4.487,4.487,0,0,0-2.588-.726,5.394,5.394,0,0,0-2.968.789,5.025,5.025,0,0,0-1.872,2.162,7.28,7.28,0,0,0-.64,3.11,6.214,6.214,0,0,0,.761,3.093,5.656,5.656,0,0,0,2.1,2.146,5.935,5.935,0,0,0,3.075.79,5.6,5.6,0,0,0,1.933-.363,5.93,5.93,0,0,0,1.6-.837,1.694,1.694,0,0,1,.99-.363,1.3,1.3,0,0,1,.928.332,1.514,1.514,0,0,1,.548,1.042,1.133,1.133,0,0,1-.487.978,8.319,8.319,0,0,1-2.573,1.389,8.9,8.9,0,0,1-2.938.537" transform="translate(-1539.348 -773.669)"/>
      <path id="Path_1123" data-name="Path 1123" d="M1628.641,800.093a6.473,6.473,0,0,1,.9-3.393,6.692,6.692,0,0,1,2.42-2.384,6.558,6.558,0,0,1,3.349-.883,4.862,4.862,0,0,1,2.725.615,1.319,1.319,0,0,1,.685,1.468,1.231,1.231,0,0,1-.35.679,1.2,1.2,0,0,1-.594.3,1.735,1.735,0,0,1-.731-.031,8.247,8.247,0,0,0-3.5-.063,4.688,4.688,0,0,0-2.451,1.294,3.35,3.35,0,0,0-.9,2.4Zm.03,10.8a1.525,1.525,0,0,1-1.127-.395,1.6,1.6,0,0,1-.4-1.184V795.2a1.614,1.614,0,0,1,.4-1.168,1.494,1.494,0,0,1,1.127-.41,1.519,1.519,0,0,1,1.141.394,1.647,1.647,0,0,1,.381,1.184v14.11a1.656,1.656,0,0,1-.381,1.168,1.482,1.482,0,0,1-1.141.41" transform="translate(-1549.051 -777.42)"/>
      <path id="Path_1124" data-name="Path 1124" d="M1536.658,770.65a1.627,1.627,0,0,1-.433,1.149l-2.033,2.859a1.431,1.431,0,0,1-2.194.107,1.614,1.614,0,0,1-.535-1.1,1.581,1.581,0,0,1,.433-1.172l2.033-2.859a1.472,1.472,0,0,1,2.193-.106,1.569,1.569,0,0,1,.536,1.125" transform="translate(-1516.072 -769.029)"/>
      <path id="Path_1125" data-name="Path 1125" d="M1528.669,769.526a1.474,1.474,0,0,1,2.193.106l2.033,2.859a1.583,1.583,0,0,1,.432,1.172,1.614,1.614,0,0,1-.535,1.1,1.431,1.431,0,0,1-2.194-.106l-2.033-2.859a1.624,1.624,0,0,1-.432-1.149,1.568,1.568,0,0,1,.535-1.125" transform="translate(-1514.925 -769.029)"/>
      <path id="Path_1126" data-name="Path 1126" d="M1636.05,846.872a1.591,1.591,0,0,1,.442-1.153,1.479,1.479,0,0,1,1.112-.458h11.177a1.468,1.468,0,0,1,1.127.458,1.792,1.792,0,0,1,0,2.321,1.5,1.5,0,0,1-1.127.442H1637.6a1.506,1.506,0,0,1-1.112-.442,1.579,1.579,0,0,1-.442-1.169" transform="translate(-1552.119 -795.283)"/>
      <path id="Path_1127" data-name="Path 1127" d="M1565.176,837.2a3.917,3.917,0,0,1-2.376-.758,5,5,0,0,1-1.615-2.069,7.4,7.4,0,0,1-.579-3.017V814.114a1.571,1.571,0,0,1,.427-1.137,1.581,1.581,0,0,1,2.193,0,1.571,1.571,0,0,1,.427,1.137V831.36a3.894,3.894,0,0,0,.426,1.927,1.254,1.254,0,0,0,1.1.758h.762a1.245,1.245,0,0,1,.99.442,1.683,1.683,0,0,1,.381,1.137,1.371,1.371,0,0,1-.579,1.137,2.39,2.39,0,0,1-1.493.442Z" transform="translate(-1526.117 -784.004)"/>
      <path id="Path_1128" data-name="Path 1128" d="M1578.009,838.308a5.121,5.121,0,0,0,4.707-2.842,6.585,6.585,0,0,0,.685-3.064,6.684,6.684,0,0,0-.685-3.08,5.383,5.383,0,0,0-7.51-2.1,5.31,5.31,0,0,0-1.92,2.1,6.56,6.56,0,0,0-.7,3.08,6.463,6.463,0,0,0,.7,3.064,5.34,5.34,0,0,0,1.92,2.085,5.2,5.2,0,0,0,2.8.758m0,2.843a8.368,8.368,0,0,1-4.356-1.121,7.98,7.98,0,0,1-2.971-3.1,10.106,10.106,0,0,1,0-9.1,7.989,7.989,0,0,1,2.971-3.1,8.963,8.963,0,0,1,8.682,0,8,8,0,0,1,2.97,3.1,10.167,10.167,0,0,1,.016,9.1,7.886,7.886,0,0,1-2.956,3.1,8.368,8.368,0,0,1-4.356,1.121" transform="translate(-1529.217 -787.824)"/>
      <path id="Path_1129" data-name="Path 1129" d="M1605.9,827.642a5.122,5.122,0,0,0,4.707-2.842,6.586,6.586,0,0,0,.685-3.064,6.683,6.683,0,0,0-.685-3.08,5.383,5.383,0,0,0-7.51-2.1,5.311,5.311,0,0,0-1.92,2.1,6.559,6.559,0,0,0-.7,3.08,6.464,6.464,0,0,0,.7,3.064,5.343,5.343,0,0,0,1.92,2.085,5.2,5.2,0,0,0,2.8.758m-.061,9.887a9.441,9.441,0,0,1-4.052-.885,8.568,8.568,0,0,1-3.2-2.59,1.379,1.379,0,0,1-.29-1.106,1.493,1.493,0,0,1,1.737-1.169,1.546,1.546,0,0,1,.959.632,5.657,5.657,0,0,0,2.072,1.674,6.468,6.468,0,0,0,2.834.6,5.225,5.225,0,0,0,2.7-.726,5.151,5.151,0,0,0,1.965-2.148,7.525,7.525,0,0,0,.731-3.474v-4.486l1.006-2.779,1.98.663v6.823a9.62,9.62,0,0,1-1.066,4.532,8.315,8.315,0,0,1-2.97,3.237,8.081,8.081,0,0,1-4.4,1.2m-.549-7.044a7.32,7.32,0,0,1-4.036-1.121,7.769,7.769,0,0,1-2.757-3.1,9.852,9.852,0,0,1-1.006-4.533,9.344,9.344,0,0,1,1.082-4.564,7.986,7.986,0,0,1,2.97-3.1,8.965,8.965,0,0,1,8.683,0,7.994,7.994,0,0,1,2.97,3.1,9.348,9.348,0,0,1,1.081,4.564h-1.8a12.3,12.3,0,0,1-.875,4.948,6.921,6.921,0,0,1-2.6,2.68,6.355,6.355,0,0,1-3.717,1.121" transform="translate(-1538.829 -784.148)"/>
      <path id="Path_1130" data-name="Path 1130" d="M1628.7,841.091a1.48,1.48,0,0,1-1.112-.458,1.594,1.594,0,0,1-.442-1.153V825.424a1.583,1.583,0,0,1,.442-1.169,1.638,1.638,0,0,1,2.239,0,1.613,1.613,0,0,1,.427,1.169V839.48a1.624,1.624,0,0,1-.427,1.153,1.468,1.468,0,0,1-1.127.458" transform="translate(-1549.051 -787.891)"/>
      <path id="Path_1131" data-name="Path 1131" d="M1644.04,832.054a8.131,8.131,0,0,1-7.327-4.28,9.147,9.147,0,0,1-1.081-4.469,9.479,9.479,0,0,1,1.066-4.548,7.921,7.921,0,0,1,2.925-3.111,8.093,8.093,0,0,1,4.265-1.121,7.557,7.557,0,0,1,3.29.71,7.965,7.965,0,0,1,2.681,2.132,1.169,1.169,0,0,1,.3,1.043,1.647,1.647,0,0,1-.671.948,1.123,1.123,0,0,1-.944.205,1.835,1.835,0,0,1-.944-.552,4.818,4.818,0,0,0-3.717-1.643,4.962,4.962,0,0,0-4.6,2.811,6.853,6.853,0,0,0-.67,3.127,6.512,6.512,0,0,0,.685,3.032,5.341,5.341,0,0,0,1.9,2.1,5.165,5.165,0,0,0,2.833.774,5.947,5.947,0,0,0,1.874-.268,4.415,4.415,0,0,0,1.477-.838,1.817,1.817,0,0,1,1.005-.457,1.171,1.171,0,0,1,.914.3,1.526,1.526,0,0,1,.579,1,1.2,1.2,0,0,1-.365.995,7.586,7.586,0,0,1-5.484,2.116" transform="translate(-1551.975 -784.689)"/>
      <path id="Path_1132" data-name="Path 1132" d="M1675.618,841.056a1.48,1.48,0,0,1-1.112-.457,1.593,1.593,0,0,1-.442-1.153v-4.833l.578-3.348,2.529,1.138v7.043a1.6,1.6,0,0,1-.443,1.153,1.479,1.479,0,0,1-1.111.457m-6.824-2.748a5.062,5.062,0,0,0,2.772-.773,5.438,5.438,0,0,0,1.92-2.117,6.422,6.422,0,0,0,.7-3.016,6.493,6.493,0,0,0-.7-3.048,5.431,5.431,0,0,0-1.92-2.116,5.32,5.32,0,0,0-5.529,0,5.489,5.489,0,0,0-1.95,2.116,6.369,6.369,0,0,0-.716,3.048,6.3,6.3,0,0,0,.716,3.016,5.5,5.5,0,0,0,1.95,2.117,5.082,5.082,0,0,0,2.757.773m-.609,2.843a7.139,7.139,0,0,1-3.991-1.153,8.084,8.084,0,0,1-2.787-3.127,9.58,9.58,0,0,1-1.021-4.469,9.035,9.035,0,0,1,1.112-4.485,8.381,8.381,0,0,1,3.016-3.143,8.5,8.5,0,0,1,8.546,0,8.427,8.427,0,0,1,3,3.143,9.037,9.037,0,0,1,1.112,4.485h-1.188a9.588,9.588,0,0,1-1.021,4.469,8.092,8.092,0,0,1-2.787,3.127,7.143,7.143,0,0,1-3.991,1.153" transform="translate(-1560.506 -787.824)"/>
      <path id="Path_1133" data-name="Path 1133" d="M1651.069,770.019a1.722,1.722,0,0,1,1.009-.93,1.646,1.646,0,0,1,1.345.123l3.809,2.486a1.73,1.73,0,0,1,.912,1.054,1.857,1.857,0,0,1-.134,1.386,1.746,1.746,0,0,1-1,.954,1.668,1.668,0,0,1-1.353-.147l-3.809-2.486a1.777,1.777,0,0,1-.9-1.03,1.809,1.809,0,0,1,.127-1.41" transform="translate(-1557.221 -768.999)"/>
      <path id="Path_1134" data-name="Path 1134" d="M1674.971,770.019a1.722,1.722,0,0,1,1.009-.93,1.646,1.646,0,0,1,1.345.123l3.809,2.486a1.73,1.73,0,0,1,.912,1.054,1.857,1.857,0,0,1-.134,1.386,1.745,1.745,0,0,1-1,.954,1.668,1.668,0,0,1-1.353-.147l-3.809-2.486a1.777,1.777,0,0,1-.9-1.03,1.809,1.809,0,0,1,.126-1.41" transform="translate(-1565.458 -768.999)"/>
      <path id="Path_1135" data-name="Path 1135" d="M1664.006,770.019a1.721,1.721,0,0,0-1.009-.93,1.646,1.646,0,0,0-1.345.123l-3.809,2.486a1.732,1.732,0,0,0-.912,1.054,1.856,1.856,0,0,0,.134,1.386,1.745,1.745,0,0,0,1,.954,1.668,1.668,0,0,0,1.353-.147l3.809-2.486a1.775,1.775,0,0,0,.9-1.03,1.809,1.809,0,0,0-.127-1.41" transform="translate(-1559.289 -768.999)"/>
      <path id="Path_1136" data-name="Path 1136" d="M1663.02,770.019a1.722,1.722,0,0,1,1.009-.93,1.646,1.646,0,0,1,1.345.123l3.809,2.486a1.731,1.731,0,0,1,.912,1.054,1.857,1.857,0,0,1-.134,1.386,1.745,1.745,0,0,1-1,.954,1.668,1.668,0,0,1-1.353-.147l-3.809-2.486a1.777,1.777,0,0,1-.9-1.03,1.808,1.808,0,0,1,.126-1.41" transform="translate(-1561.34 -768.999)"/>
      <path id="Path_1137" data-name="Path 1137" d="M1675.958,770.019a1.722,1.722,0,0,0-1.009-.93,1.646,1.646,0,0,0-1.345.123L1669.8,771.7a1.732,1.732,0,0,0-.912,1.054,1.857,1.857,0,0,0,.134,1.386,1.745,1.745,0,0,0,1,.954,1.668,1.668,0,0,0,1.353-.147l3.809-2.486a1.774,1.774,0,0,0,.9-1.03,1.808,1.808,0,0,0-.126-1.41" transform="translate(-1563.408 -768.999)"/>
    </g>
    <path id="Path_1138" data-name="Path 1138" d="M1517.6,830.73h-.635l-1.233,2.167-1.251-2.167h-.64v3.487h.792V832.2l.932,1.611h.347l1-1.655v2.066h.7Z" transform="translate(-476.468 -465.382)"/>
    <path id="Path_1139" data-name="Path 1139" d="M1523.182,830.73h-1.644v3.487h1.739a1.706,1.706,0,0,0,1-.246.817.817,0,0,0,.343-.705.854.854,0,0,0-.615-.862.834.834,0,0,0,.329-.314.914.914,0,0,0,.113-.562.725.725,0,0,0-.089-.29,1.246,1.246,0,0,0-1.18-.508m-.852,1.436v-.821h.772a.769.769,0,0,1,.437.1.346.346,0,0,1,.149.305.353.353,0,0,1-.149.309.759.759,0,0,1-.437.1Zm0,1.436v-.82h.864q.59,0,.59.413a.345.345,0,0,1-.148.308.8.8,0,0,1-.442.1Z" transform="translate(-479.121 -465.382)"/>
    <path id="Path_1140" data-name="Path 1140" d="M1529.207,830.731h-1.48v3.487h.791v-.923h.68l.617.923h.941l-.767-1.121a1.169,1.169,0,0,0,.521-.431,1.2,1.2,0,0,0,.183-.67,1.226,1.226,0,0,0-.181-.673,1.182,1.182,0,0,0-.515-.438,1.871,1.871,0,0,0-.789-.154m-.689,1.948v-1.231h.642a.806.806,0,0,1,.54.159.653.653,0,0,1,0,.91.8.8,0,0,1-.54.161Z" transform="translate(-481.254 -465.382)"/>
    <path id="Path_1141" data-name="Path 1141" d="M1535.411,830.731h-.769l-1.5,3.487h.84l.286-.718h1.5l.286.718h.859Zm-.916,2.154.527-1.319.528,1.319Z" transform="translate(-483.12 -465.382)"/>
    <path id="Path_1142" data-name="Path 1142" d="M1541.531,830.706a1.862,1.862,0,0,0-.923.229,1.674,1.674,0,0,0-.646.635,1.909,1.909,0,0,0,0,1.836,1.673,1.673,0,0,0,.646.635,1.854,1.854,0,0,0,.919.229,1.9,1.9,0,0,0,.783-.157,1.543,1.543,0,0,0,.589-.458l-.494-.473a1.042,1.042,0,0,1-.836.409,1.075,1.075,0,0,1-.55-.14.978.978,0,0,1-.378-.391,1.271,1.271,0,0,1,0-1.142.975.975,0,0,1,.378-.392,1.082,1.082,0,0,1,.55-.14,1.049,1.049,0,0,1,.836.4l.494-.472a1.582,1.582,0,0,0-.587-.453,1.879,1.879,0,0,0-.781-.157" transform="translate(-485.39 -465.374)"/>
    <path id="Path_1143" data-name="Path 1143" d="M1548.614,830.887h-2.473v3.384h2.473v-.615h-1.781v-.82h1.583v-.615h-1.583V831.5h1.781Z" transform="translate(-487.601 -465.436)"/>
    <path id="Path_1144" data-name="Path 1144" d="M1509.783,839.72a1.863,1.863,0,0,0-.924.229,1.682,1.682,0,0,0-.646.635,1.914,1.914,0,0,0,0,1.836,1.682,1.682,0,0,0,.646.635,1.855,1.855,0,0,0,.919.229,1.9,1.9,0,0,0,.783-.158,1.547,1.547,0,0,0,.589-.457l-.494-.473a1.042,1.042,0,0,1-.836.409,1.082,1.082,0,0,1-.551-.14.983.983,0,0,1-.378-.391,1.275,1.275,0,0,1,0-1.142.978.978,0,0,1,.378-.391,1.076,1.076,0,0,1,.551-.14,1.046,1.046,0,0,1,.836.4l.494-.472a1.576,1.576,0,0,0-.587-.453,1.878,1.878,0,0,0-.781-.157" transform="translate(-474.447 -468.48)"/>
    <path id="Path_1145" data-name="Path 1145" d="M1517.261,839.807h-.792v1.9a1.072,1.072,0,0,1-.191.7.683.683,0,0,1-.552.224q-.741,0-.742-.925v-1.9h-.692v1.93a1.617,1.617,0,0,0,.391,1.166,1.663,1.663,0,0,0,2.185,0,1.621,1.621,0,0,0,.392-1.166Z" transform="translate(-476.624 -468.51)"/>
    <path id="Path_1146" data-name="Path 1146" d="M1522.112,839.807h-1.48v3.385h.792v-.923h.68l.616.923h.941l-.767-1.088a1.16,1.16,0,0,0,.52-.419,1.14,1.14,0,0,0,.183-.65,1.161,1.161,0,0,0-.181-.653,1.173,1.173,0,0,0-.515-.425,1.92,1.92,0,0,0-.789-.15m-.689,1.846v-1.231h.642a.808.808,0,0,1,.54.159.653.653,0,0,1,0,.91.8.8,0,0,1-.54.161Z" transform="translate(-478.809 -468.51)"/>
    <rect id="Rectangle_622" data-name="Rectangle 622" width="0.792" height="3.487" transform="translate(1045.879 371.297)"/>
    <path id="Path_1147" data-name="Path 1147" d="M1531.372,839.72a1.886,1.886,0,0,0-.932.231,1.687,1.687,0,0,0-.651.638,1.89,1.89,0,0,0,0,1.826,1.68,1.68,0,0,0,.651.637,1.986,1.986,0,0,0,1.863,0,1.708,1.708,0,0,0,.651-.637,1.876,1.876,0,0,0,0-1.826,1.715,1.715,0,0,0-.651-.638,1.875,1.875,0,0,0-.931-.231m0,2.885a1.022,1.022,0,0,1-.531-.14.984.984,0,0,1-.373-.391,1.269,1.269,0,0,1,0-1.142.989.989,0,0,1,.373-.391,1.078,1.078,0,0,1,1.063,0,.99.99,0,0,1,.373.391,1.269,1.269,0,0,1,0,1.142.985.985,0,0,1-.373.391,1.022,1.022,0,0,1-.532.14" transform="translate(-481.884 -468.48)"/>
    <path id="Path_1148" data-name="Path 1148" d="M1537.781,839.72a1.867,1.867,0,0,0-.771.143,1.06,1.06,0,0,0-.473.386.984.984,0,0,0-.156.545.832.832,0,0,0,.173.551,1.012,1.012,0,0,0,.415.3,5.431,5.431,0,0,0,.622.187q.247.059.392.108a.691.691,0,0,1,.237.13.261.261,0,0,1,.093.2.306.306,0,0,1-.157.268.913.913,0,0,1-.485.1,1.851,1.851,0,0,1-.589-.1,1.726,1.726,0,0,1-.508-.261l-.261.6a1.756,1.756,0,0,0,.591.288,2.626,2.626,0,0,0,.762.111,1.886,1.886,0,0,0,.774-.143,1.073,1.073,0,0,0,.477-.387.965.965,0,0,0,.159-.539.807.807,0,0,0-.174-.546,1.023,1.023,0,0,0-.415-.3,5.31,5.31,0,0,0-.622-.187,2.694,2.694,0,0,1-.544-.17.279.279,0,0,1-.178-.263.333.333,0,0,1,.155-.285.839.839,0,0,1,.477-.108,1.8,1.8,0,0,1,.921.271l.238-.606a1.809,1.809,0,0,0-.532-.227,2.471,2.471,0,0,0-.622-.079" transform="translate(-484.213 -468.48)"/>
    <rect id="Rectangle_623" data-name="Rectangle 623" width="0.792" height="3.487" transform="translate(1055.87 371.297)"/>
    <path id="Path_1149" data-name="Path 1149" d="M1547.5,839.807h-2.869v.615h.989v2.769h.792v-2.769h1.088Z" transform="translate(-487.08 -468.51)"/>
    <path id="Path_1150" data-name="Path 1150" d="M1553,839.807h-.777l-.914,1.549-.913-1.549h-.84l1.324,2.242v1.245h.792v-1.235Z" transform="translate(-488.777 -468.51)"/>
    <path id="Path_2202" data-name="Path 2202" d="M1548.614,830.887h-2.473v3.384h2.473v-.615h-1.781v-.82h1.583v-.615h-1.583V831.5h1.781Z" transform="translate(-512.601 -465.436)"/>
  </g>
</svg>
