<svg xmlns="http://www.w3.org/2000/svg" width="181.773" height="29.544" viewBox="0 0 181.773 29.544">
  <g id="Group_509" data-name="Group 509" transform="translate(-24.195 -126.796)">
    <g id="Group_507" data-name="Group 507" transform="translate(24.196 126.796)">
      <path id="Path_2143" data-name="Path 2143" d="M38.422,152.383c0,.85-.042,1.7.015,2.548.04.592-.181.66-.7.631a14.4,14.4,0,0,1-1.367-28.608c2.056-.324,2.056-.324,2.056,1.735,0,1.262-.036,2.526.014,3.787.023.578-.13.782-.719.854a7.773,7.773,0,0,0-6.969,6.588,7.859,7.859,0,0,0,7.056,9.16c.512.05.647.2.626.685C38.4,150.634,38.422,151.509,38.422,152.383Z" transform="translate(-24.196 -126.796)" fill="#1a1818"/>
      <path id="Path_2144" data-name="Path 2144" d="M72.775,167.8c-1.477,0-2.973-.031-4.467.016-.6.019-.716-.182-.706-.732.033-1.82.026-3.641,0-5.462-.006-.439.1-.578.561-.575q5.971.027,11.943,0c.393,0,.6.044.654.525A14.381,14.381,0,0,1,70.1,177.146c-.652.177-1.331.256-2,.385-.379.073-.5-.064-.5-.457.018-1.821.024-3.642,0-5.462-.007-.453.193-.564.574-.649a7.837,7.837,0,0,0,4.436-2.733C72.7,168.127,72.849,168.046,72.775,167.8Z" transform="translate(-52.118 -148.828)" fill="#aeb0b3"/>
      <path id="Path_2145" data-name="Path 2145" d="M76.317,136.534c-.316,0-.632-.02-.946,0-1.523.115-2.887.031-3.994-1.355a5.2,5.2,0,0,0-3.145-1.55c-.448-.09-.635-.249-.625-.749.034-1.771.024-3.543,0-5.314-.005-.435.068-.589.56-.518a14.269,14.269,0,0,1,11.683,9c.173.4.085.5-.333.488C78.452,136.52,77.385,136.534,76.317,136.534Z" transform="translate(-52.121 -126.95)" fill="#aeb0b3"/>
    </g>
    <g id="Group_508" data-name="Group 508" transform="translate(64.958 130.853)">
      <path id="Path_2146" data-name="Path 2146" d="M295.961,166.514c-.419-1.95-.084-3.924-.185-5.884-.047-.9,0-1.806-.1-2.7a1.913,1.913,0,0,0-1.527-1.845,2.229,2.229,0,0,0-2.359.965,4.5,4.5,0,0,0-.772,2.686c-.025,1.983-.052,3.967-.02,5.949.012.752-.2,1.063-.994,1.017a24.841,24.841,0,0,0-2.973,0c-.831.052-1.091-.236-1.073-1.071.05-2.3.035-4.6.006-6.9-.021-1.665-.7-2.61-1.861-2.709a2.851,2.851,0,0,0-2.771,2.363c-.288.454,0,1-.232,1.462a47.119,47.119,0,0,1-.075,6.657,18.2,18.2,0,0,1-4.584.028l-.007.006c-.219-3.8-.054-7.611-.092-11.417-.027-2.833-.005-2.838,2.891-2.823a2.882,2.882,0,0,1,1.324.111c.436.6.024,1.314.314,2.14a5.88,5.88,0,0,1,4.866-2.65,4.8,4.8,0,0,1,4.794,2.634A6.2,6.2,0,0,1,296.872,152c2.392.37,3.548,1.722,3.682,4.229.013,2.68.021,5.36.006,8.04a3.532,3.532,0,0,1-.169,1.719c-1.141.652-2.366.327-3.559.274-.631-.028-.736-.528-.733-1.08.012-2.314,0-4.627,0-6.941q-.008,4.033,0,8.067Z" transform="translate(-227.145 -147)" fill="#1a1818"/>
      <path id="Path_2147" data-name="Path 2147" d="M143.916,149.824c1.675,4.059,4.745,5.393,9.471,4.115,1.736-.47,1.781-.472,1.851,1.275.1,2.6.65,2.116-2.1,2.66a15.988,15.988,0,0,1-7.23-.18c-5.33-1.4-8.163-5.784-7.277-11.244a8.957,8.957,0,0,1,4.69-6.861,4.1,4.1,0,0,1,2.437-.621c.81-.3,1.708.111,2.4-.2a3.908,3.908,0,0,1-2.153-.086,12.846,12.846,0,0,1,8.154.309c-.884.473-1.7-.349-2.519-.134a12.455,12.455,0,0,1,2.389.395c.735.1.887.542.821,1.245-.188,2-.34,2.125-2.32,1.625a3.257,3.257,0,0,0-2.1-.179c-3.645.218-5.833,1.775-6.5,4.625A7.773,7.773,0,0,0,143.916,149.824Z" transform="translate(-138.468 -138.169)" fill="#1a1818"/>
      <path id="Path_2148" data-name="Path 2148" d="M501.868,166.522a42.692,42.692,0,0,1-.084-7.214c-.294-.528.174-1.207-.335-1.693a2.24,2.24,0,0,0-2.5-1.547,2.791,2.791,0,0,0-2.39,2.26,22.245,22.245,0,0,0-.28,4.7,13.143,13.143,0,0,1-.151,3.463c-.288-2.389-.038-4.782-.148-7.173.11,2.4-.156,4.8.134,7.192a13.284,13.284,0,0,1-4.533.059q-.128-6.675,0-13.346c.634-.981,1.62-.28,2.3-.51-.61-.035-1.335.045-2.057-.046a.72.72,0,0,1-.316-.229c1.252-.469,2.549-.1,3.822-.193.5-.035.543.35.535.74-.01.478,0,.957,0,1.654a6.292,6.292,0,0,1,6.716-2.559,4.271,4.271,0,0,1,3.58,3.051c.767,3.561.234,7.169.393,10.752.021.468-.089.8-.656.768A25.969,25.969,0,0,1,501.868,166.522Z" transform="translate(-365.572 -147.014)" fill="#1a1818"/>
      <path id="Path_2149" data-name="Path 2149" d="M409.166,154.391a2.038,2.038,0,0,0,2.7,1.529c.676-.157.865.087.879.733.059,2.82.732,2.25-2.236,2.641a7.7,7.7,0,0,1-1.484,0c-3.38-.215-4.76-1.658-4.81-5.054-.026-1.711-.056-3.425.014-5.134.037-.92-.287-1.152-1.159-1.128-.56.016-1.468.428-1.659-.344a7.385,7.385,0,0,1,.017-2.81c.068-.443.7-.264,1.08-.269,1.964-.024,1.742.253,1.777-1.836.007-.428-.187-.9.187-1.285a.282.282,0,0,1,.153.2,16.354,16.354,0,0,1,0,1.9c-.341-.579.556-1.388-.153-2.1,1.276-.776,2.774-.917,4.138-1.445.548-.212.576.182.575.573,0,.986.03,1.974-.012,2.959-.031.714.145,1.027.957,1.049,2.693.075,2.692.111,2.491,2.871a1.221,1.221,0,0,1-.774.124c-.838,0-1.676.014-2.234,0,.8.184,1.925-.189,3,.137-.671.693-1.516.281-2.254.271-.978-.014-1.224.325-1.193,1.246.052,1.571-.02,3.147-.04,4.72-.631.01-.388-.485-.4-.764-.032-1.323-.007-2.648-.02-3.971,0,1.294-.009,2.588,0,3.882C408.711,153.569,408.6,154.1,409.166,154.391Z" transform="translate(-307.531 -139.306)" fill="#1a1818"/>
      <path id="Path_2150" data-name="Path 2150" d="M196.068,154.406a4.272,4.272,0,0,1,4.942-2.514c.087.02.212.007.257.062.954,1.151.092,2.426.213,3.642.079.8-.637.361-1,.343-2.584-.132-4.057,1.1-4.393,3.726a34.13,34.13,0,0,0-.094,5.66c.018,1.048-.317,1.351-1.309,1.25a32.363,32.363,0,0,1-3.5-.127c-.5-.516-.037-1.082-.053-1.617-.118-4.109.121-8.222-.136-12.33,0-.054.115-.115.176-.173a15.97,15.97,0,0,1,4.339.023l.081.262a2.556,2.556,0,0,0-.136,1.69C195.5,154.692,195.782,154.848,196.068,154.406Z" transform="translate(-172.234 -146.921)" fill="#1a1818"/>
      <path id="Path_2151" data-name="Path 2151" d="M491.172,153.381q.132.028.266.046a.308.308,0,0,1,.026.5c0,4.052,0,8.1-.009,12.156,0,.48.154,1-.211,1.431-.332-.142-.247-.438-.247-.695q0-6.412,0-12.824C491,153.774,490.963,153.543,491.172,153.381Z" transform="translate(-365.239 -147.955)" fill="#1a1818"/>
      <path id="Path_2152" data-name="Path 2152" d="M353.509,153.959q0,8.911-.01,17.822c0,.471.188,1-.265,1.4-.076-6.582-.183-13.164.054-19.746C353.754,153.443,353.676,153.683,353.509,153.959Z" transform="translate(-276.566 -147.988)" fill="#1a1818"/>
      <path id="Path_2153" data-name="Path 2153" d="M280.278,152.937c-.989.006-1.982.064-2.967,0-.91-.056-1.142.319-1.138,1.177.023,4.316-.007,8.632-.019,12.949-.412-.243-.233-.646-.234-.976-.012-4.055.021-8.11-.03-12.164-.012-.957.273-1.318,1.216-1.19C278.159,152.88,279.244,152.494,280.278,152.937Z" transform="translate(-226.865 -147.525)" fill="#1a1818"/>
      <path id="Path_2154" data-name="Path 2154" d="M172,142.96c.97-.63,1.907-.065,2.83.131.622.132,1.241.163,1.156-.555-.082-.7.825-1.769-.508-2.116a11.148,11.148,0,0,0-2.88-.492c1.062-.517,2.085.217,3.131.081.208.5,1.018-.209,1.1.546-.238.451.027.974-.207,1.424l-.046.737a1.522,1.522,0,0,0-.153.976c.022.242.013.54-.393.387A19.386,19.386,0,0,0,172,142.96Z" transform="translate(-160.041 -139.181)" fill="#1a1818"/>
      <path id="Path_2155" data-name="Path 2155" d="M191.606,180.677c1.217-.008,2.435-.05,3.65-.012.775.024,1.025-.286,1.005-1.034-.039-1.486-.021-2.975,0-4.462,0-.433-.149-.913.249-1.275.012,1.976,0,3.953.047,5.929.017.716-.127,1.11-.95,1.029C194.275,180.722,192.925,181.047,191.606,180.677Z" transform="translate(-172.651 -161.151)" fill="#1a1818"/>
      <path id="Path_2156" data-name="Path 2156" d="M353.771,153.551l-.221-.527c1.252-.439,2.543-.087,3.812-.184.491-.038.589.293.575.7-.018.536-.032,1.073-.048,1.61a.979.979,0,0,1-.112-.071c-.55-.462.219-1.559-.611-1.7A5.711,5.711,0,0,0,353.771,153.551Z" transform="translate(-276.827 -147.579)" fill="#1a1818"/>
      <path id="Path_2157" data-name="Path 2157" d="M343.486,173.775c0-2.78-.007-5.559.01-8.339,0-.472-.179-1,.249-1.4l.042.718c.221,2.947.059,5.9.086,8.846A.248.248,0,0,1,343.486,173.775Z" transform="translate(-270.337 -154.809)" fill="#1a1818"/>
      <path id="Path_2158" data-name="Path 2158" d="M343.969,175.078q.045-4.513.09-9.027a53.244,53.244,0,0,1-.034,9.56l-.107-.107A.415.415,0,0,1,343.969,175.078Z" transform="translate(-270.608 -156.105)" fill="#1a1818"/>
      <path id="Path_2159" data-name="Path 2159" d="M267.781,171.17a9.445,9.445,0,0,1,0-4.865A7.12,7.12,0,0,1,267.781,171.17Z" transform="translate(-221.448 -156.269)" fill="#1a1818"/>
      <path id="Path_2160" data-name="Path 2160" d="M335.986,192.01a12,12,0,0,1-4.6.009l.069-.1a6.681,6.681,0,0,1,4.467.015Z" transform="translate(-262.569 -172.505)" fill="#1a1818"/>
      <path id="Path_2161" data-name="Path 2161" d="M422.334,169.521c-.039.211-.077.422-.165.9-.754-2.474-.285-4.729-.158-6.965,0,1.365-.02,2.731.01,4.1.011.512-.208,1.084.267,1.521Q422.311,169.3,422.334,169.521Z" transform="translate(-320.7 -154.435)" fill="#1a1818"/>
      <path id="Path_2162" data-name="Path 2162" d="M276.665,192.885l4.584-.028A12.677,12.677,0,0,1,276.665,192.885Z" transform="translate(-227.368 -173.349)" fill="#1a1818"/>
      <path id="Path_2163" data-name="Path 2163" d="M195.911,152.924l-4.339-.023A9.63,9.63,0,0,1,195.911,152.924Z" transform="translate(-172.629 -147.494)" fill="#1a1818"/>
      <path id="Path_2164" data-name="Path 2164" d="M483.392,172.041a3.046,3.046,0,0,1,0-2.7A5.414,5.414,0,0,1,483.392,172.041Z" transform="translate(-360.151 -158.225)" fill="#1a1818"/>
      <path id="Path_2165" data-name="Path 2165" d="M427.315,161.252h-3.17l0-.259h3.183Z" transform="translate(-322.239 -152.852)" fill="#1a1818"/>
      <path id="Path_2166" data-name="Path 2166" d="M203.747,155.919c-.159.549-.5.807-.69.108a1.829,1.829,0,0,1,.219-1.9C203.63,154.671,202.828,155.521,203.747,155.919Z" transform="translate(-179.913 -148.433)" fill="#1a1818"/>
      <path id="Path_2167" data-name="Path 2167" d="M159.148,139.624h2.242v.281H158.9Z" transform="translate(-151.61 -139.105)" fill="#1a1818"/>
      <path id="Path_2168" data-name="Path 2168" d="M183.309,149.445c.464-.341-.068-1.082.546-1.363C183.695,148.545,184.364,149.34,183.309,149.445Z" transform="translate(-167.314 -144.546)" fill="#1a1818"/>
      <path id="Path_2169" data-name="Path 2169" d="M519.382,167.889c.672.453.253,1.122.335,1.692Z" transform="translate(-383.505 -157.288)" fill="#1a1818"/>
      <path id="Path_2170" data-name="Path 2170" d="M289.648,171.559c.028-.5-.218-1.034.232-1.462Z" transform="translate(-235.693 -158.708)" fill="#1a1818"/>
      <path id="Path_2171" data-name="Path 2171" d="M184.891,143.446c.015-.483-.2-1,.207-1.424A2.533,2.533,0,0,1,184.891,143.446Z" transform="translate(-168.304 -140.648)" fill="#1a1818"/>
      <path id="Path_2172" data-name="Path 2172" d="M336.045,176.8a11.57,11.57,0,0,0-4.467-.014q0-4.385,0-8.769l.205-.005q0,3.288,0,6.576c0,1.747,0,1.747,1.759,1.748q1.15,0,2.3,0c.071,0,.142,0,.213.006Q336.05,176.567,336.045,176.8Z" transform="translate(-262.693 -157.365)" fill="#1a1818"/>
      <path id="Path_2173" data-name="Path 2173" d="M368.833,156.025a6.006,6.006,0,0,0-7.025-3.873c-1.731.289-2.812,1.46-4.016,2.507-.38-.378-.133-.854-.194-1.281-.038-.264-.014-.53-.275-.714-.579-.407-3.183-.071-3.761.495-.046,5.89,0,11.781-.026,17.672a2.681,2.681,0,0,1-.136,1.452c1.222.576,2.52.1,3.769.274.924.128,1.14-.272,1.117-1.132-.054-2.085-.017-4.172-.017-6.431a6.248,6.248,0,0,0,10.256-1.352A9.434,9.434,0,0,0,368.833,156.025ZM364,161.332a2.777,2.777,0,0,1-2.493,1.957,2.725,2.725,0,0,1-2.712-1.641,4.559,4.559,0,0,1,.767-5.352.491.491,0,0,1,.341-.472,3.751,3.751,0,0,1,2.047-.275,1.02,1.02,0,0,1,.653.494A4.436,4.436,0,0,1,364,161.332Z" transform="translate(-276.73 -147.092)" fill="#1a1818"/>
      <path id="Path_2174" data-name="Path 2174" d="M365.753,195.467v-6.936l.1,0v6.936Z" transform="translate(-284.677 -170.565)" fill="#1a1818"/>
      <path id="Path_2175" data-name="Path 2175" d="M373.47,161.734c-.207.016-.417.041-.565-.157-.754-.626-1.434-.071-2.137.134l-.341.276c-.3-.359-.049-.569.225-.731a3.554,3.554,0,0,1,2.686-.21C373.474,161.076,374.3,161.343,373.47,161.734Z" transform="translate(-287.596 -152.782)" fill="#1a1818"/>
      <path id="Path_2176" data-name="Path 2176" d="M384.7,171.986V170.2l.128,0V172Z" transform="translate(-296.865 -158.771)" fill="#1a1818"/>
      <path id="Path_2177" data-name="Path 2177" d="M454.112,158.133a5.926,5.926,0,0,0-2.6-4.515,9.7,9.7,0,0,0-7.723-1.49,7.436,7.436,0,0,0-.555,14.565,10.953,10.953,0,0,0,5.348.01,6.841,6.841,0,0,0,5.528-5.874A11.846,11.846,0,0,1,454.112,158.133Zm-5.444,3.692a2.822,2.822,0,0,1-2.683,1.715,2.914,2.914,0,0,1-2.825-1.715,4.644,4.644,0,0,1-.45-2.36,4.758,4.758,0,0,1,.453-2.359,2.919,2.919,0,0,1,2.829-1.713,2.813,2.813,0,0,1,2.678,1.726A5.445,5.445,0,0,1,448.668,161.825Z" transform="translate(-330.871 -147.012)" fill="#1a1818"/>
      <path id="Path_2178" data-name="Path 2178" d="M458.184,185.46a3.529,3.529,0,0,1,1.872-.084A3.494,3.494,0,0,1,458.184,185.46Z" transform="translate(-344.137 -168.481)" fill="#1a1818"/>
      <path id="Path_2179" data-name="Path 2179" d="M238.819,157.036a5.428,5.428,0,0,0-1.872-3.045c-3.033-2.746-8.911-2.8-12.025-.123a6.577,6.577,0,0,0-1.874,2.6,7.389,7.389,0,0,0,5.872,10.346c4.832.788,8.736-1.151,9.9-4.918Q238.841,159.469,238.819,157.036Zm-5.4,5.1a3.085,3.085,0,0,1-5.493-.7,12.75,12.75,0,0,1-.3-1.988,5.379,5.379,0,0,1,.607-2.59,3.02,3.02,0,0,1,5.229.009A5.124,5.124,0,0,1,233.423,162.136Z" transform="translate(-192.486 -147)" fill="#1a1818"/>
      <path id="Path_2180" data-name="Path 2180" d="M245.682,160.46h-1.533A1.679,1.679,0,0,1,245.682,160.46Z" transform="translate(-206.451 -152.39)" fill="#1a1818"/>
      <path id="Path_2181" data-name="Path 2181" d="M503.858,179.215c-.542-.924-.2-1.93-.236-2.894a21.865,21.865,0,0,1,.249-4.657V179.2Z" transform="translate(-373.321 -159.715)" fill="#1a1818"/>
      <path id="Path_2182" data-name="Path 2182" d="M492.277,153.937q-.013-.249-.026-.5a11.225,11.225,0,0,1,3.631.218C494.7,154.111,493.476,153.85,492.277,153.937Z" transform="translate(-366.052 -147.966)" fill="#1a1818"/>
      <path id="Path_2183" data-name="Path 2183" d="M410.222,144.151l.6.2c-.579.772-.069,1.722-.6,2.536q0-1.369,0-2.738Z" transform="translate(-313.284 -142.017)" fill="#1a1818"/>
      <ellipse id="Ellipse_235" data-name="Ellipse 235" cx="1.517" cy="0.088" rx="1.517" ry="0.088" transform="translate(93.837 8.181)" fill="#1a1818"/>
      <path id="Path_2184" data-name="Path 2184" d="M371.631,162.19c.682-.534,1.375-.873,2.137-.134C373.036,161.791,372.345,162.17,371.631,162.19Z" transform="translate(-288.459 -153.261)" fill="#1a1818"/>
    </g>
  </g>
</svg>
