<svg xmlns="http://www.w3.org/2000/svg" width="152.494" height="24.669" viewBox="0 0 152.494 24.669">
  <g id="Group_529" data-name="Group 529" transform="translate(-965.045 -134.135)">
    <path id="Path_2212" data-name="Path 2212" d="M1070.1,157.4l-.021-9.225-4.526,7.6h-1.6l-4.5-7.4V157.4h-3.338V142.028h2.942l5.757,9.557,5.668-9.557h2.921l.043,15.377Z" transform="translate(-37.232 -3.227)" fill="#231f20"/>
    <path id="Path_2213" data-name="Path 2213" d="M1091.542,151.858a2.64,2.64,0,0,0-.9,1.684h5.431a2.635,2.635,0,0,0-.9-1.671,2.7,2.7,0,0,0-1.8-.627,2.768,2.768,0,0,0-1.827.614m7.483,3.548h-8.343a2.6,2.6,0,0,0,1.066,1.619,3.527,3.527,0,0,0,2.092.595,4.219,4.219,0,0,0,1.529-.255,3.724,3.724,0,0,0,1.238-.809l1.7,1.844a5.72,5.72,0,0,1-4.552,1.784,7.214,7.214,0,0,1-3.3-.726,5.374,5.374,0,0,1-2.216-2.022,5.92,5.92,0,0,1-.008-5.853,5.388,5.388,0,0,1,2.109-2.029,6.533,6.533,0,0,1,5.936-.031,5.074,5.074,0,0,1,2.061,2,5.978,5.978,0,0,1,.748,3.025c0,.041-.02.328-.063.86" transform="translate(-50.049 -6.006)" fill="#231f20"/>
    <path id="Path_2214" data-name="Path 2214" d="M1117.579,156.113a2.77,2.77,0,0,0,0-3.914,2.937,2.937,0,0,0-2.079-.75,2.974,2.974,0,0,0-2.091.75,2.737,2.737,0,0,0,0,3.914,2.972,2.972,0,0,0,2.091.751,2.936,2.936,0,0,0,2.079-.751m3.967-7.122v9.184a5.888,5.888,0,0,1-1.578,4.51,6.511,6.511,0,0,1-4.612,1.476,11.549,11.549,0,0,1-3.035-.388,6.645,6.645,0,0,1-2.378-1.127l1.269-2.3a5.189,5.189,0,0,0,1.765.912,7.015,7.015,0,0,0,2.131.339,3.455,3.455,0,0,0,2.451-.749,2.988,2.988,0,0,0,.789-2.265v-.471a4.478,4.478,0,0,1-3.484,1.374,5.851,5.851,0,0,1-2.778-.666,5.094,5.094,0,0,1-2-1.877,5.639,5.639,0,0,1,0-5.577,5.1,5.1,0,0,1,2-1.876,5.872,5.872,0,0,1,2.778-.666,4.381,4.381,0,0,1,3.65,1.579v-1.413Z" transform="translate(-58.996 -6.006)" fill="#231f20"/>
    <path id="Path_2215" data-name="Path 2215" d="M1140.177,157.977a2.069,2.069,0,0,0,.9-1.117v-1.129h-2.194q-1.965,0-1.968,1.293a1.149,1.149,0,0,0,.482.973,2.172,2.172,0,0,0,1.323.359,2.787,2.787,0,0,0,1.456-.38m2.726-7.605a4.668,4.668,0,0,1,1.373,3.678v6.295h-2.994v-1.373a3.559,3.559,0,0,1-3.362,1.539,5.225,5.225,0,0,1-2.2-.431,3.294,3.294,0,0,1-1.423-1.189,3.074,3.074,0,0,1-.492-1.722,2.875,2.875,0,0,1,1.157-2.42,5.9,5.9,0,0,1,3.579-.881h2.54a2.04,2.04,0,0,0-.634-1.609,2.8,2.8,0,0,0-1.906-.565,5.545,5.545,0,0,0-1.735.277,4.571,4.571,0,0,0-1.444.748l-1.149-2.235a6.867,6.867,0,0,1,2.164-.984,9.709,9.709,0,0,1,2.592-.348,5.738,5.738,0,0,1,3.937,1.22" transform="translate(-68.994 -6.14)" fill="#231f20"/>
    <path id="Path_2216" data-name="Path 2216" d="M1156.7,159.846a7.042,7.042,0,0,1-2.091-.852l1.065-2.3a6.573,6.573,0,0,0,1.785.767,7.376,7.376,0,0,0,2.05.3q2.028,0,2.029-1a.714.714,0,0,0-.553-.677,8.282,8.282,0,0,0-1.7-.348,16.594,16.594,0,0,1-2.235-.472,3.451,3.451,0,0,1-1.528-.944,2.678,2.678,0,0,1-.645-1.928,3,3,0,0,1,.606-1.854,3.883,3.883,0,0,1,1.762-1.26,7.511,7.511,0,0,1,2.738-.453,10.821,10.821,0,0,1,2.328.257,6.562,6.562,0,0,1,1.915.708l-1.067,2.276a6.379,6.379,0,0,0-3.176-.822,3.217,3.217,0,0,0-1.539.288.843.843,0,0,0-.511.738.732.732,0,0,0,.553.718,9.988,9.988,0,0,0,1.763.39,19.047,19.047,0,0,1,2.216.482,3.337,3.337,0,0,1,1.5.932,2.644,2.644,0,0,1,.635,1.886,2.891,2.891,0,0,1-.617,1.824,3.907,3.907,0,0,1-1.793,1.241,7.993,7.993,0,0,1-2.8.44,10.711,10.711,0,0,1-2.685-.337" transform="translate(-77.501 -6.005)" fill="#231f20"/>
    <path id="Path_2217" data-name="Path 2217" d="M1181.526,156.73a3.532,3.532,0,0,0,0-4.449,2.659,2.659,0,0,0-2.018-.831,2.691,2.691,0,0,0-2.031.831,3.5,3.5,0,0,0,0,4.449,2.7,2.7,0,0,0,2.031.83,2.666,2.666,0,0,0,2.018-.83m-5.146,2.728a5.409,5.409,0,0,1-2.162-2.021,5.884,5.884,0,0,1,0-5.863,5.393,5.393,0,0,1,2.162-2.019,7.054,7.054,0,0,1,6.243,0,5.435,5.435,0,0,1,2.154,2.019,5.919,5.919,0,0,1,0,5.863,5.452,5.452,0,0,1-2.154,2.021,7.075,7.075,0,0,1-6.243,0" transform="translate(-85.197 -6.006)" fill="#231f20"/>
    <path id="Path_2218" data-name="Path 2218" d="M1200.141,146.621h2.829v2.459h-2.748V157.4h-3.2v-8.325h-1.7v-2.459h1.7v-.492a4.026,4.026,0,0,1,1.119-2.994,4.274,4.274,0,0,1,3.147-1.108,5.816,5.816,0,0,1,1.363.155,3.323,3.323,0,0,1,1.076.441l-.84,2.317a2.185,2.185,0,0,0-1.291-.39q-1.456,0-1.456,1.6Z" transform="translate(-94.145 -3.226)" fill="#231f20"/>
    <path id="Path_2219" data-name="Path 2219" d="M1217.172,158.185a3.312,3.312,0,0,1-1.159.523,5.867,5.867,0,0,1-1.445.174,4.3,4.3,0,0,1-3.045-1.006,3.846,3.846,0,0,1-1.077-2.952v-4.53h-1.7v-2.462h1.7v-2.686h3.2v2.686h2.75v2.462h-2.75v4.489a1.507,1.507,0,0,0,.361,1.075,1.321,1.321,0,0,0,1.013.38,2.065,2.065,0,0,0,1.293-.411Z" transform="translate(-99.634 -4.543)" fill="#231f20"/>
    <path id="Path_2220" data-name="Path 2220" d="M981.738,134.136l4.935,24.668h9.872l-4.935-24.668Z" transform="translate(-6.825 0)" fill="#bbbdbf"/>
    <path id="Path_2221" data-name="Path 2221" d="M1016.656,134.136l4.83,24.668h-9.871l-4.827-24.668Z" transform="translate(-17.066 0)" fill="#bbbdbf"/>
    <path id="Path_2222" data-name="Path 2222" d="M981.738,134.136l3.871,19.358h0Z" transform="translate(-6.825 0)" fill="#dcdfe0"/>
    <path id="Path_2223" data-name="Path 2223" d="M965.045,158.8l9.869-24.669h9.872L974.913,158.8Z" transform="translate(0)" fill="#231f20"/>
    <path id="Path_2224" data-name="Path 2224" d="M990.086,158.8l9.873-24.669h9.869L999.959,158.8Z" transform="translate(-10.238)" fill="#231f20"/>
    <path id="Path_2225" data-name="Path 2225" d="M1014.953,158.8l9.871-24.669h9.873l-9.873,24.669Z" transform="translate(-20.404)" fill="#231f20"/>
  </g>
</svg>
