<svg id="Group_444" data-name="Group 444" xmlns="http://www.w3.org/2000/svg" width="94.722" height="43.628" viewBox="0 0 94.722 43.628">
  <path id="Path_176" data-name="Path 176" d="M193.712,453.546l-3.438,5.033v3.7h-1.152v-3.7l-3.43-5.033H187.1l2.609,4.017,2.6-4.017ZM175.9,454.578H173v7.7h-1.16v-7.7h-2.862v-1.032H175.9Zm-17.059,7.7h-5.4v-8.729H154.6v7.692h4.246ZM140.356,458.7l-1.532-4.048-1.468,4.048Zm2.659,3.573h-1.306l-1.009-2.658h-3.657l-.97,2.658h-1.222l3.36-8.729h1.246Zm-18.263,0h-6.506v-8.729h6.308v1.032H119.4v2.672h4.819v1.032H119.4v2.956h5.354ZM101.119,457.5H103.7a4.6,4.6,0,0,0,.93-.081,1.672,1.672,0,0,0,.639-.258,1.038,1.038,0,0,0,.362-.472,1.931,1.931,0,0,0,.115-.7q0-1.49-1.871-1.488h-2.758Zm6.125,4.772h-1.251l-.818-2.33a2.339,2.339,0,0,0-.3-.563,2.024,2.024,0,0,0-.435-.448,1.875,1.875,0,0,0-.55-.289,1.941,1.941,0,0,0-.628-.1h-2.14v3.735H99.967v-8.729h3.863a8.235,8.235,0,0,1,.92.047,3.9,3.9,0,0,1,.738.146,1.769,1.769,0,0,1,.589.315,2.2,2.2,0,0,1,.459.519,2.835,2.835,0,0,1,.3.664,2.682,2.682,0,0,1,.107.754,2.441,2.441,0,0,1-.138.831,2.19,2.19,0,0,1-.388.68,2.236,2.236,0,0,1-.615.5,3.321,3.321,0,0,1-.813.315,2.365,2.365,0,0,1,1.381,1.582Z" transform="translate(-98.99 -418.646)"/>
  <path id="Path_177" data-name="Path 177" d="M191.669,384.517v11.816H199.4v-1.445h-5.154V390.3H199.4v-1.445h-5.154v-2.829H199.4v-1.508Zm7.732,0h4.336c2.011,0,3.646,1.068,3.646,2.452,0,1.132-1.258,2.136-2.891,2.388v.062h.189a3.644,3.644,0,0,1,3.583,3.457c0,1.885-2.515,3.456-6.726,3.456H199.4v-1.445h2.576c1.7,0,3.081-1.006,3.081-2.263s-1.383-2.326-3.081-2.326H199.4v-1.445h3.079c1.132,0,2.076-.691,2.076-1.446,0-.816-.943-1.383-2.076-1.383H199.4Z" transform="translate(-170.047 -365.158)" fill-rule="evenodd"/>
  <path id="Path_178" data-name="Path 178" d="M95.627,389.343a4.026,4.026,0,0,0,1.257,2.828,8.461,8.461,0,0,0,3.646,2.263,21.133,21.133,0,0,0,5.281.816v-1.445a10.443,10.443,0,0,1-5.155-1.131,3.92,3.92,0,0,1-2.2-3.332,4.1,4.1,0,0,1,2.262-3.771,11.474,11.474,0,0,1,5.092-1.132v-1.32a14.459,14.459,0,0,0-7.354,1.7,4.749,4.749,0,0,0-2.829,4.525m10.183-6.222h.062a19.436,19.436,0,0,1,5.279.755,7.942,7.942,0,0,1,3.582,2.2,4.326,4.326,0,0,1,0,6.222,10.658,10.658,0,0,1-3.833,2.262,17.345,17.345,0,0,1-5.028.691h-.062v-1.445a10.7,10.7,0,0,0,5.217-1.131,4.008,4.008,0,0,0,2.136-3.458,4.32,4.32,0,0,0-.943-2.577,6.746,6.746,0,0,0-2.577-1.634,13.958,13.958,0,0,0-3.77-.566h-.062Z" transform="translate(-95.627 -364.076)" fill-rule="evenodd"/>
  <path id="Path_179" data-name="Path 179" d="M267.616,396.019v-11.5h13.7v1.446H270.129v2.765h10.5v1.382h-10.5v4.526h11.566v1.383Z" transform="translate(-228.897 -365.158)" fill-rule="evenodd"/>
  <path id="Path_180" data-name="Path 180" d="M408.044,389.343a4.309,4.309,0,0,0,1.257,2.828,9.289,9.289,0,0,0,3.647,2.263,19.438,19.438,0,0,0,5.342.816v-1.445h-.126a10.779,10.779,0,0,1-5.154-1.131,4.017,4.017,0,0,1,.125-7.1,11.133,11.133,0,0,1,5.155-1.132v-1.32a13.558,13.558,0,0,0-7.354,1.7,4.908,4.908,0,0,0-2.892,4.525m10.246-6.222h0a19.907,19.907,0,0,1,5.342.755,8.307,8.307,0,0,1,3.583,2.2,4.48,4.48,0,0,1,0,6.222,10.135,10.135,0,0,1-3.835,2.262,17.784,17.784,0,0,1-5.09.691v-1.445a10.7,10.7,0,0,0,5.217-1.131,3.94,3.94,0,0,0,2.073-3.458,4.7,4.7,0,0,0-.88-2.577,6.745,6.745,0,0,0-2.576-1.634,14.852,14.852,0,0,0-3.834-.566Z" transform="translate(-337.71 -364.076)" fill-rule="evenodd"/>
  <rect id="Rectangle_125" data-name="Rectangle 125" width="2.578" height="11.502" transform="translate(92.144 19.359)"/>
  <path id="Path_181" data-name="Path 181" d="M336.293,395.949h2.64v-5.782h5.217v-1.446h-5.217v-2.954h5.217v-1.32h-7.857Zm7.857-11.5h.5c1.822,0,7.73-.439,7.416,2.766-.127,1.571-1.446,2.074-2.7,2.136,2.514.44,1.886,5.154,3.519,6.6H350l-1.509-4.651a1.974,1.974,0,0,0-2.2-1.131H344.15v-1.446c1.068,0,5.468.314,5.217-1.509-.189-1.76-3.582-1.383-4.588-1.446h-.629Z" transform="translate(-282.112 -365.088)" fill-rule="evenodd"/>
  <rect id="Rectangle_126" data-name="Rectangle 126" width="2.578" height="11.502" transform="translate(92.144 19.359)"/>
  <path id="Path_182" data-name="Path 182" d="M233.128,304.872v2.451l6.537,6.285h1.572v-2.325l-.063.063-5.53-5.279,5.53-5.28h.063v-2.263l-1.572.063Zm8.109-6.349h1.446l6.034,5.783,6.1-5.783h9.868c.753,0,1.193.378,1.257.88v.126a2.152,2.152,0,0,1-.378.755l-5.405,5.594H251.67l2.2-2.01h4.9l3.206-3.08h-5.72l-.69.629-5.092,4.651,5.092,4.714.69.565h5.72l-3.206-3.08h-4.9l-2.2-1.949h8.486l5.405,5.469a2.148,2.148,0,0,1,.378.754v.188a1.152,1.152,0,0,1-1.257.943h-9.868l-6.1-5.909-6.034,5.846h-1.446v-2.325l5.594-5.217-5.594-5.28Z" transform="translate(-202.173 -298.524)" fill-rule="evenodd"/>
</svg>
