<svg xmlns="http://www.w3.org/2000/svg" width="143.151" height="30.129" viewBox="0 0 143.151 30.129">
    <g>
        <path d="M825.785 2300.438s2.006-2.747 7.037-2.753a6.839 6.839 0 0 1 5.7 2.346 9.73 9.73 0 0 1 1.873 6.256v12.822H835v-12.163a4.64 4.64 0 0 0-.967-3.232 3.647 3.647 0 0 0-2.819-1.049 3.926 3.926 0 0 0-1.956.473 4.568 4.568 0 0 0-1.441 1.276 5.766 5.766 0 0 0-.9 1.895 8.483 8.483 0 0 0-.309 2.325v10.476h-5.392v-21.338" transform="translate(-135 -45.841) translate(-621.266 -2243.384)"/>
        <path d="M465.084 2251.3h5.392v10.829c.792-.769 2.247-2.057 6-2.239a6.959 6.959 0 0 1 5.916 2.358 9.709 9.709 0 0 1 1.873 6.3v12.8h-5.393V2269.2a4.605 4.605 0 0 0-.987-3.189 3.534 3.534 0 0 0-2.758-1.09 4.035 4.035 0 0 0-1.976.474 4.375 4.375 0 0 0-1.461 1.3 6.025 6.025 0 0 0-.906 1.913 8.519 8.519 0 0 0-.309 2.327v10.408h-5.392z" transform="translate(-135 -45.841) translate(-330.084 -2205.456)"/>
        <path d="M599.232 2317.7s-2.006 2.746-7.036 2.754a6.839 6.839 0 0 1-5.7-2.347 9.73 9.73 0 0 1-1.873-6.256v-12.821h5.392v12.163a4.642 4.642 0 0 0 .967 3.232 3.648 3.648 0 0 0 2.819 1.05 3.922 3.922 0 0 0 1.956-.474 4.557 4.557 0 0 0 1.441-1.276 5.765 5.765 0 0 0 .9-1.894 8.5 8.5 0 0 0 .309-2.326v-10.475h5.393v21.338" transform="translate(-135 -45.841) translate(-427.821 -2244.482)"/>
        <path d="M718.763 2314.66a11.3 11.3 0 0 1-3.767 3.993 10.469 10.469 0 0 1-5.783 1.522 11.1 11.1 0 0 1-4.26-.8 10.151 10.151 0 0 1-5.638-5.638 11.226 11.226 0 0 1-.8-4.3 11.064 11.064 0 0 1 .783-4.136 10.44 10.44 0 0 1 5.5-5.742 10.129 10.129 0 0 1 4.218-.864 10.972 10.972 0 0 1 4.322.8 8.81 8.81 0 0 1 3.17 2.223 9.592 9.592 0 0 1 1.935 3.355 12.983 12.983 0 0 1 .658 4.2v.493a2.778 2.778 0 0 0-.041.454 2.286 2.286 0 0 0-.042.452h-15.196a5.671 5.671 0 0 0 .679 2.12 5.1 5.1 0 0 0 1.276 1.482 4.962 4.962 0 0 0 1.667.864 6.49 6.49 0 0 0 1.852.268 5.253 5.253 0 0 0 3.067-.845 6.147 6.147 0 0 0 1.913-2.12zm-4.9-7.82a3.486 3.486 0 0 0-.349-1.194 4.238 4.238 0 0 0-.906-1.234 4.749 4.749 0 0 0-1.48-.947 5.476 5.476 0 0 0-2.121-.371 4.942 4.942 0 0 0-3.045.987 5.21 5.21 0 0 0-1.852 2.759z" transform="translate(-135 -45.841) translate(-520.94 -2244.205)"/>
        <path d="M955.584 2314.66a11.3 11.3 0 0 1-3.767 3.993 10.468 10.468 0 0 1-5.782 1.522 11.1 11.1 0 0 1-4.26-.8 10.153 10.153 0 0 1-5.638-5.638 11.226 11.226 0 0 1-.8-4.3 11.029 11.029 0 0 1 .782-4.136 10.44 10.44 0 0 1 5.5-5.742 10.129 10.129 0 0 1 4.218-.864 10.972 10.972 0 0 1 4.322.8 8.811 8.811 0 0 1 3.17 2.223 9.59 9.59 0 0 1 1.934 3.355 12.975 12.975 0 0 1 .658 4.2v.493a2.768 2.768 0 0 0-.04.454 2.281 2.281 0 0 0-.042.452h-15.196a5.676 5.676 0 0 0 .68 2.12 5.1 5.1 0 0 0 1.276 1.482 4.961 4.961 0 0 0 1.667.864 6.488 6.488 0 0 0 1.852.268 5.251 5.251 0 0 0 3.066-.845 6.146 6.146 0 0 0 1.914-2.12zm-4.9-7.82a3.492 3.492 0 0 0-.349-1.194 4.24 4.24 0 0 0-.906-1.234 4.752 4.752 0 0 0-1.481-.947 5.477 5.477 0 0 0-2.121-.371 4.941 4.941 0 0 0-3.045.987 5.211 5.211 0 0 0-1.852 2.759z" transform="translate(-135 -45.841) translate(-714.572 -2244.205)"/>
        <path d="M1061.241 2320.176a11.533 11.533 0 0 1-3.521-.493 9.724 9.724 0 0 1-2.674-1.3 8.493 8.493 0 0 1-1.915-1.852 8.949 8.949 0 0 1-1.194-2.12l4.816-2.06a5.2 5.2 0 0 0 1.873 2.328 4.7 4.7 0 0 0 2.614.761 4.423 4.423 0 0 0 2.345-.536 1.519 1.519 0 0 0 .866-1.276 1.58 1.58 0 0 0-.722-1.338 7.519 7.519 0 0 0-2.489-.926l-2.841-.617a9.763 9.763 0 0 1-1.954-.659 7.57 7.57 0 0 1-1.832-1.151 5.84 5.84 0 0 1-1.359-1.688 4.771 4.771 0 0 1-.535-2.3 5.338 5.338 0 0 1 .639-2.635 5.946 5.946 0 0 1 1.75-1.956 8.393 8.393 0 0 1 2.613-1.234 11.62 11.62 0 0 1 3.232-.433 11.363 11.363 0 0 1 5.145 1.132 6.982 6.982 0 0 1 3.334 3.6l-4.651 1.894a3.576 3.576 0 0 0-1.688-1.728 5.086 5.086 0 0 0-2.223-.535 4.129 4.129 0 0 0-2.017.474 1.391 1.391 0 0 0-.864 1.214 1.241 1.241 0 0 0 .722 1.111 8.288 8.288 0 0 0 1.954.741l3.088.741a8.922 8.922 0 0 1 4.589 2.366 5.483 5.483 0 0 1 1.5 3.85 5.386 5.386 0 0 1-.618 2.51 6.748 6.748 0 0 1-1.75 2.12 8.583 8.583 0 0 1-2.716 1.461 10.959 10.959 0 0 1-3.517.534z" transform="translate(-135 -45.841) translate(-809.911 -2244.205)"/>
        <path d="M1161.139 2320.176a11.536 11.536 0 0 1-3.521-.493 9.725 9.725 0 0 1-2.674-1.3 8.5 8.5 0 0 1-1.915-1.852 8.943 8.943 0 0 1-1.193-2.12l4.816-2.06a5.2 5.2 0 0 0 1.873 2.328 4.7 4.7 0 0 0 2.614.761 4.424 4.424 0 0 0 2.345-.536 1.519 1.519 0 0 0 .866-1.276 1.58 1.58 0 0 0-.721-1.338 7.519 7.519 0 0 0-2.489-.926l-2.841-.617a9.756 9.756 0 0 1-1.954-.659 7.574 7.574 0 0 1-1.832-1.151 5.832 5.832 0 0 1-1.359-1.688 4.764 4.764 0 0 1-.535-2.3 5.335 5.335 0 0 1 .639-2.635 5.944 5.944 0 0 1 1.75-1.956 8.389 8.389 0 0 1 2.612-1.234 11.62 11.62 0 0 1 3.232-.433 11.364 11.364 0 0 1 5.145 1.132 6.98 6.98 0 0 1 3.334 3.6l-4.651 1.894a3.576 3.576 0 0 0-1.688-1.728 5.086 5.086 0 0 0-2.223-.535 4.13 4.13 0 0 0-2.017.474 1.391 1.391 0 0 0-.864 1.214 1.241 1.241 0 0 0 .722 1.111 8.286 8.286 0 0 0 1.954.741l3.088.741a8.923 8.923 0 0 1 4.589 2.366 5.483 5.483 0 0 1 1.5 3.85 5.39 5.39 0 0 1-.618 2.51 6.746 6.746 0 0 1-1.75 2.12 8.581 8.581 0 0 1-2.716 1.461 10.956 10.956 0 0 1-3.518.534z" transform="translate(-135 -45.841) translate(-891.59 -2244.205)"/>
    </g>
</svg>
