<svg xmlns="http://www.w3.org/2000/svg" width="147" height="25.924" viewBox="0 0 147 25.924">
  <path id="Path_2280" data-name="Path 2280" d="M402.437-76.975a5.476,5.476,0,0,0-.8-3.21,2.656,2.656,0,0,0-2.3-1.124,2.617,2.617,0,0,0-2.247,1.124,5.522,5.522,0,0,0-.749,3.21,5.008,5.008,0,0,0,.8,3.051,2.709,2.709,0,0,0,2.3,1.123,2.552,2.552,0,0,0,2.192-1.123,5.169,5.169,0,0,0,.8-3.051m-6.1,10.49A1.753,1.753,0,0,1,395.8-65.2a1.752,1.752,0,0,1-1.283.534H392.7V-77.99q0-3.747,2.2-5.109a8.866,8.866,0,0,1,4.763-1.365,7.717,7.717,0,0,1,2.7.507,4.817,4.817,0,0,1,2.165,1.47,8.389,8.389,0,0,1,1.607,5.352,8.636,8.636,0,0,1-1.607,5.457,4.99,4.99,0,0,1-4.12,2.033,5.335,5.335,0,0,1-2.356-.48,3.993,3.993,0,0,1-1.712-1.658Zm-7.973-10.49a5.476,5.476,0,0,0-.8-3.21,2.656,2.656,0,0,0-2.3-1.124,2.618,2.618,0,0,0-2.247,1.124,5.522,5.522,0,0,0-.749,3.21,5.014,5.014,0,0,0,.8,3.051,2.709,2.709,0,0,0,2.3,1.123,2.552,2.552,0,0,0,2.192-1.123A5.169,5.169,0,0,0,388.362-76.975Zm-6.1,12.763a1.753,1.753,0,0,1-.535,1.284,1.753,1.753,0,0,1-1.283.535h-1.822v-15.6q0-3.747,2.2-5.109a8.866,8.866,0,0,1,4.763-1.365,7.721,7.721,0,0,1,2.7.507,4.819,4.819,0,0,1,2.165,1.47,8.389,8.389,0,0,1,1.607,5.352,8.636,8.636,0,0,1-1.607,5.457,4.989,4.989,0,0,1-4.12,2.033,5.337,5.337,0,0,1-2.356-.48,3.993,3.993,0,0,1-1.712-1.658Zm-6.8-6.287a6.746,6.746,0,0,1-2.379.726,21.357,21.357,0,0,1-2.224.132,5.6,5.6,0,0,1-3.371-1.046,3.967,3.967,0,0,1-1.443-3.452,3.722,3.722,0,0,1,1.311-3.21,7.274,7.274,0,0,1,3.342-1.283c.176-.025.392-.03.644-.082s.535-.09.854-.132c1.572-.209,2.356-.676,2.356-1.393a1.013,1.013,0,0,0-.831-1.041,5.53,5.53,0,0,0-1.526-.242,3.953,3.953,0,0,0-1.338.214,1.445,1.445,0,0,0-.854.8h-3.585a4.138,4.138,0,0,1,1.5-2.73,6.219,6.219,0,0,1,4.119-1.229,8,8,0,0,1,4.494,1.019,3.426,3.426,0,0,1,1.553,3v4.873a6.158,6.158,0,0,1-.777,3.342A4.822,4.822,0,0,1,375.461-70.5Zm-.854-6.58a9.425,9.425,0,0,1-2.087.694c-.82.188-1.229.27-1.229.27a2.708,2.708,0,0,0-1.392.694,1.844,1.844,0,0,0-.375,1.178,1.687,1.687,0,0,0,.48,1.284,1.962,1.962,0,0,0,1.392.429,3.186,3.186,0,0,0,2.357-.858,3.174,3.174,0,0,0,.853-2.352Zm-16.646,7.17v-6.9a8.788,8.788,0,0,1,.617-3.5,5.783,5.783,0,0,1,1.685-2.274,6.582,6.582,0,0,1,2.379-1.179,10.51,10.51,0,0,1,2.809-.374h.539v3.8h-1.233a3.135,3.135,0,0,0-2.3.749,3.218,3.218,0,0,0-.749,2.356v7.329Zm-4.868,0h-3.744l-2.2-10.166-2.191,10.166h-3.749l-3.9-14.234h3.64l2.247,9.846,2.032-9.846h3.8l1.927,9.846,1.982-8.563a1.569,1.569,0,0,1,1.712-1.283H357Zm-16.376,0h-1.872a1.774,1.774,0,0,1-1.315-.507,1.771,1.771,0,0,1-.508-1.311v-7.279a2.2,2.2,0,0,0-.776-1.872,2.8,2.8,0,0,0-1.74-.589,2.685,2.685,0,0,0-1.712.589,2.244,2.244,0,0,0-.749,1.872v9.1H324.3v-8.348q0-3.637,1.9-4.868a7.95,7.95,0,0,1,4.2-1.338,7.75,7.75,0,0,1,4.334,1.228q1.98,1.231,1.981,4.977ZM314.4-78.473h5.457a3.449,3.449,0,0,0-.749-2.142,2.566,2.566,0,0,0-1.977-.749,2.615,2.615,0,0,0-1.928.749A3.077,3.077,0,0,0,314.4-78.473Zm6.421,4.174H323.5a5.927,5.927,0,0,1-2.246,3.426,6.906,6.906,0,0,1-4.174,1.233,6,6,0,0,1-4.763-1.982,8.083,8.083,0,0,1-1.713-5.512,7.935,7.935,0,0,1,1.658-5.352,5.959,5.959,0,0,1,4.763-1.982A6.331,6.331,0,0,1,322-82.542a8.028,8.028,0,0,1,1.712,5.511v.589a.906.906,0,0,1-.055.375H314.4a3.823,3.823,0,0,0,.8,2.461,2.613,2.613,0,0,0,2.087.858,3.205,3.205,0,0,0,1.553-.374,1.159,1.159,0,0,0,.292-.187l.3-.3a1.128,1.128,0,0,1,.4-.424A1.6,1.6,0,0,1,320.821-74.3Zm-14.878-5.831a2.538,2.538,0,0,0-2.192-1.124,2.7,2.7,0,0,0-2.3,1.069,4.808,4.808,0,0,0-.8,2.946v7.329h-3.64V-88.319h1.822a1.754,1.754,0,0,1,1.284.534,1.755,1.755,0,0,1,.535,1.284v4.228a4.244,4.244,0,0,1,2.73-2.032,5.345,5.345,0,0,1,3.37.214,5.877,5.877,0,0,1,2.512,2.032,6.413,6.413,0,0,1,1.019,3.854v8.294h-3.585V-77.3a7.569,7.569,0,0,0-.132-1.47A3.607,3.607,0,0,0,305.942-80.131Zm-12.2,5.831h2.676a5.924,5.924,0,0,1-2.247,3.426A6.9,6.9,0,0,1,290-69.642a6,6,0,0,1-4.763-1.982,8.083,8.083,0,0,1-1.712-5.512,7.935,7.935,0,0,1,1.658-5.352,5.958,5.958,0,0,1,4.763-1.982,6.288,6.288,0,0,1,4.977,1.928,6.766,6.766,0,0,1,1.389,2.73h-3.745a3.355,3.355,0,0,0-.534-.8,2.6,2.6,0,0,0-1.982-.749,2.531,2.531,0,0,0-1.922.749,5.115,5.115,0,0,0-.963,3.535,5.157,5.157,0,0,0,.963,3.475,2.623,2.623,0,0,0,2.087.858,3.216,3.216,0,0,0,1.548-.374,1.161,1.161,0,0,0,.3-.187c.089-.089.2-.18.292-.3a3.186,3.186,0,0,1,.429-.424A1.481,1.481,0,0,1,293.741-74.3Zm-10.22,4.389a27.535,27.535,0,0,1-3.827-.055q-2.061-.161-2.06-2.622V-88.319h1.928a1.7,1.7,0,0,1,1.233.534,1.754,1.754,0,0,1,.534,1.284v2.407h2.192v.749a1.739,1.739,0,0,1-.535,1.315,1.794,1.794,0,0,1-1.283.507h-.375V-73.6c0,.607.356.909,1.069.909h1.123ZM272.937-88.319h1.927a1.754,1.754,0,0,1,1.284.534,1.755,1.755,0,0,1,.534,1.288v1.123h-3.744Zm0,4.174h1.927a1.754,1.754,0,0,1,1.284.534,1.754,1.754,0,0,1,.534,1.284v12.417h-3.744Zm-10.061,0h0V-78.9l4.549-5.242h4.493l-5.082,5.457,5.138,8.777h-4.494l-2.621-4.818c-.539-.964-1-1.37-1.393-1.229s-.589.357-.589.64v5.407h-3.745V-88.319h1.928a1.752,1.752,0,0,1,1.283.534,1.692,1.692,0,0,1,.535,1.233Z" transform="translate(-259.131 88.319)"/>
</svg>
