<svg xmlns="http://www.w3.org/2000/svg" width="186.089" height="34.528" viewBox="0 0 186.089 34.528">
  <g id="Group_510" data-name="Group 510" transform="translate(-20.451 -369.918)">
    <path id="Path_2185" data-name="Path 2185" d="M20.451,410.49V388.228c.183.008.366.022.549.022H206.025c.172,0,.343-.014.515-.021V410.49c-.16-.007-.321-.021-.481-.021q-92.564,0-185.128,0C20.771,410.469,20.611,410.483,20.451,410.49Zm13.773-10.408h.1c0-1.16-.029-2.32.011-3.479a1.929,1.929,0,0,0-.666-1.618c-.145-.129-.283-.266-.425-.4a4.3,4.3,0,0,0-2.781-1.278c-.756-.038-1.514-.055-2.267-.131-.551-.056-.7.028-.775.574q-.259,1.911-.534,3.82c-.182,1.261-.38,2.52-.557,3.781-.1.718.067.932.786.97s1.47.026,2.2.052a5.372,5.372,0,0,1,2.8.727c.517.333.967.767,1.463,1.133a.732.732,0,0,0,.484.139c.071-.009.155-.258.156-.4C34.229,402.677,34.224,401.38,34.224,400.082Zm.351-.145h-.043c0,1.262-.006,2.525.008,3.787,0,.136.084.346.183.385a.458.458,0,0,0,.4-.145,2.82,2.82,0,0,1,1.558-1.019c1.111-.266,2.242-.452,3.369-.646.541-.093,1.1-.094,1.637-.2s.656-.318.587-.86c-.049-.386-.134-.768-.184-1.154-.142-1.092-.267-2.185-.412-3.277-.149-1.125-.318-2.248-.468-3.373-.055-.415-.2-.529-.617-.458a10.021,10.021,0,0,1-1.628.252,5.39,5.39,0,0,0-3.916,1.879,1.626,1.626,0,0,0-.482,1.212C34.585,397.527,34.575,398.732,34.575,399.937Zm70,3.994a8.389,8.389,0,0,0,4.319-.8,5.3,5.3,0,0,0,2.86-3.67,4.871,4.871,0,0,0-1.641-4.739,6.035,6.035,0,0,0-3.553-1.581,7.929,7.929,0,0,0-5.6,1.113,5.052,5.052,0,0,0,.065,8.54A6.405,6.405,0,0,0,104.575,403.931Zm-17.811-6.423v-.026c-.988,0-1.975,0-2.962,0-.408,0-.485-.084-.486-.485,0-.62-.015-1.24.007-1.86a1.819,1.819,0,0,1,.642-1.463c.1-.079.138-.238.2-.359a1.312,1.312,0,0,0-.372-.121q-1.446-.016-2.892,0a1.332,1.332,0,0,0-.394.137c.072.12.117.277.221.354a1.474,1.474,0,0,1,.586,1.29q0,1.722,0,3.444,0,1.808,0,3.617a1.467,1.467,0,0,1-.637,1.264,1.58,1.58,0,0,0-.212.227,1.736,1.736,0,0,0,.3.2.75.75,0,0,0,.273.015c.861,0,1.722,0,2.583-.005a1.159,1.159,0,0,0,.407-.044c.185-.073.265-.235.052-.353a1.671,1.671,0,0,1-.758-1.592c-.032-.8-.009-1.607-.01-2.411,0-.612.057-.672.666-.673q2.842,0,5.683,0c.383,0,.45.064.451.469,0,.976,0,1.952,0,2.928a1.431,1.431,0,0,1-.711,1.289c-.058.037-.128.121-.123.176a.257.257,0,0,0,.147.165.805.805,0,0,0,.3.05c.953,0,1.906,0,2.859-.014a1.074,1.074,0,0,0,.352-.145,1.013,1.013,0,0,0-.177-.3,1.442,1.442,0,0,1-.58-1.087c-.014-.263-.043-.527-.043-.79q0-3.014,0-6.028a1.894,1.894,0,0,1,.7-1.771c.077-.052.1-.187.143-.283a.906.906,0,0,0-.3-.121q-1.533-.015-3.065,0a1.006,1.006,0,0,0-.331.136.988.988,0,0,0,.176.295,1.623,1.623,0,0,1,.654,1.439c-.027.665,0,1.332-.006,2,0,.409-.049.452-.46.451Q88.211,397.506,86.765,397.508Zm67.316-4.64-.019.076c-.332.016-.667.014-1,.053a3.958,3.958,0,0,0-3.137,1.787,2.663,2.663,0,0,0,.423,3.288,5.737,5.737,0,0,0,3.157,1.31c.887.174,1.78.331,2.654.558a1.178,1.178,0,0,1,.543,2.064,2.779,2.779,0,0,1-1.76.688,6.062,6.062,0,0,1-3.686-.862c-.484-.253-.912-.611-1.374-.908a.6.6,0,0,0-.374-.1c-.059.008-.138.185-.134.282.025.688.059,1.376.114,2.063.023.288.207.384.49.315a1.656,1.656,0,0,1,.535-.109,15.258,15.258,0,0,1,1.824.279,9.418,9.418,0,0,0,3.035.286,4.532,4.532,0,0,0,3.217-1.567,2.6,2.6,0,0,0,.206-3.079,3.71,3.71,0,0,0-2.533-1.505c-.786-.161-1.588-.242-2.38-.373a10.448,10.448,0,0,1-1.212-.259,1.243,1.243,0,0,1-.473-2.282,3.128,3.128,0,0,1,2.235-.6,4.792,4.792,0,0,1,3.386,1.549.443.443,0,0,0,.373.129.434.434,0,0,0,.16-.357c-.042-.63-.115-1.258-.174-1.886-.026-.273-.193-.376-.429-.289a1.966,1.966,0,0,1-1.147-.045C155.765,393.193,154.922,393.035,154.081,392.868Zm-100.949.1a4.877,4.877,0,0,0-2.715.543,3.137,3.137,0,0,0-1.494,1.517,2.742,2.742,0,0,0,1.118,3.483,7.815,7.815,0,0,0,2.875.88c.81.146,1.618.315,2.41.535a1.43,1.43,0,0,1,.725.526,1.164,1.164,0,0,1-.406,1.7,3.437,3.437,0,0,1-2.434.543,7.328,7.328,0,0,1-4.139-1.771,1.377,1.377,0,0,0-.42-.163,1.43,1.43,0,0,0-.128.433c.021.619.072,1.237.107,1.856.022.383.148.491.532.392a3.375,3.375,0,0,1,1.9.084,8.882,8.882,0,0,0,3.157.422,4.594,4.594,0,0,0,3.6-1.718,2.785,2.785,0,0,0,.215-2.8,3.585,3.585,0,0,0-2.62-1.643c-1.074-.188-2.155-.339-3.224-.551a2.426,2.426,0,0,1-.994-.435,1.17,1.17,0,0,1,.152-1.935,3.742,3.742,0,0,1,3.516-.381,4.62,4.62,0,0,1,2.1,1.319.476.476,0,0,0,.354.136c.063-.008.15-.2.146-.3-.022-.619-.055-1.238-.11-1.855-.029-.328-.242-.426-.556-.391a2.992,2.992,0,0,1-.907-.021A9.379,9.379,0,0,0,53.132,392.971Zm83.935,7.992v0c.953,0,1.907.008,2.86,0a.651.651,0,0,1,.624.347c.261.458.526.916.749,1.392a1.073,1.073,0,0,1,.02.552,1.484,1.484,0,0,1-.152.372,1.817,1.817,0,0,0,.443.123c.815.014,1.631.01,2.446.009a.608.608,0,0,0,.269-.035.387.387,0,0,0,.193-.207c.013-.049-.1-.135-.158-.2a4.58,4.58,0,0,1-.824-.795c-1.084-1.783-2.132-3.587-3.184-5.389-.712-1.218-1.4-2.446-2.121-3.66a.565.565,0,0,0-.379-.252c-.48-.031-.963-.024-1.445-.01-.254.007-.359.175-.25.4a.77.77,0,0,1-.046.754c-.153.281-.3.565-.46.843q-1.11,1.941-2.227,3.879c-.636,1.1-1.262,2.21-1.933,3.29a6.567,6.567,0,0,1-.847.923c-.073.078-.144.157-.216.235.106.071.21.2.318.2q.964.025,1.929,0c.29-.009.382-.2.227-.444a.611.611,0,0,1-.014-.679c.241-.429.487-.856.715-1.292a.624.624,0,0,1,.638-.36C135.183,400.972,136.125,400.963,137.067,400.963Zm-66.648,2.971a8.074,8.074,0,0,0,3.383-.645.819.819,0,0,0,.427-.482c.148-.515.228-1.051.325-1.58.012-.066-.014-.183-.059-.206a.32.32,0,0,0-.256-.006,2.586,2.586,0,0,0-.359.264,6,6,0,0,1-2.957,1.286,4.232,4.232,0,0,1-4.272-1.981,3.759,3.759,0,0,1-.384-3.561,4.059,4.059,0,0,1,2.156-2.306,4.449,4.449,0,0,1,3.348-.216,5.284,5.284,0,0,1,1.884,1.109,2.079,2.079,0,0,0,.432.23,2.614,2.614,0,0,0,.12-.535c0-.286-.058-.572-.057-.858a.857.857,0,0,0-.665-.887,9.192,9.192,0,0,0-3.619-.56,6.707,6.707,0,0,0-4.739,2.13,4.765,4.765,0,0,0-1.152,4.694,5.367,5.367,0,0,0,2.744,3.214A6.613,6.613,0,0,0,70.418,403.933Zm126.967.021a8.735,8.735,0,0,0,3-.625.846.846,0,0,0,.607-.757c.031-.329.141-.65.179-.979a2.907,2.907,0,0,0-.045-.581,2.268,2.268,0,0,0-.53.24,6.226,6.226,0,0,1-2.51,1.234,4.246,4.246,0,0,1-4.028-1.018,4,4,0,0,1-1.109-4.453,3.87,3.87,0,0,1,1.525-1.94,4.478,4.478,0,0,1,3.877-.606,4.385,4.385,0,0,1,2.041,1.228c.085.089.257.1.389.141a1.24,1.24,0,0,0,.131-.422c-.028-.388-.115-.771-.147-1.158a.627.627,0,0,0-.4-.58A8.535,8.535,0,0,0,197.5,393a7.741,7.741,0,0,0-3.309.5,5.666,5.666,0,0,0-3.277,2.933,4.709,4.709,0,0,0,.935,5.406A7.306,7.306,0,0,0,197.385,403.954Zm-26.724-5.422h.023c0-1.195.006-2.389,0-3.584,0-.322.115-.456.446-.447.666.018,1.333-.008,2,.022a1.726,1.726,0,0,1,.712.207c.247.133.427.131.6-.09.3-.389.616-.771.9-1.171a1.347,1.347,0,0,0,.128-.4,1.8,1.8,0,0,0-.449-.063,13.481,13.481,0,0,1-1.36.186q-3.291.026-6.581-.012a2.715,2.715,0,0,1-1.01-.267c-.231-.1-.383-.106-.54.086-.37.452-.75.9-1.108,1.358-.064.082-.048.227-.069.343a1.437,1.437,0,0,0,.352.014,4.567,4.567,0,0,1,.73-.185c.93-.026,1.86-.018,2.79-.019.279,0,.411.137.411.429,0,2.343.007,4.686-.008,7.029a1.416,1.416,0,0,1-.7,1.369.269.269,0,0,0-.13.208.293.293,0,0,0,.181.176,1.068,1.068,0,0,0,.34.033q1.327,0,2.653,0a.972.972,0,0,0,.339-.039.3.3,0,0,0,.163-.19c.012-.052-.056-.155-.115-.186a1.407,1.407,0,0,1-.7-1.4C170.658,400.806,170.661,399.669,170.661,398.532Zm-47.936,4.034v0c-.563,0-1.126,0-1.688,0-.394,0-.45-.066-.45-.468,0-2.343.007-4.685,0-7.028a1.422,1.422,0,0,1,.708-1.357c.108-.063.156-.226.232-.343a1.128,1.128,0,0,0-.381-.162q-1.531-.017-3.063.005a1.149,1.149,0,0,0-.363.139c.063.113.1.263.192.332a1.48,1.48,0,0,1,.615,1.307c-.01,1.228,0,2.457,0,3.686,0,1.125.012,2.251-.006,3.376a1.492,1.492,0,0,1-.572,1.224,1.6,1.6,0,0,0-.234.287,2.071,2.071,0,0,0,.345.171,1.14,1.14,0,0,0,.308.005c1.8,0,3.606-.013,5.409.011a5.661,5.661,0,0,1,1.387.215c.444.12.533.135.726-.286.223-.487.426-.983.613-1.485.04-.108-.026-.257-.043-.386a1.045,1.045,0,0,0-.337.085,3.255,3.255,0,0,1-1.95.67C123.689,402.554,123.207,402.566,122.725,402.566Zm60.072,1.187v-.011c.276,0,.551,0,.826,0a4.392,4.392,0,0,0,.652.014,1.346,1.346,0,0,0,.4-.2c-.082-.091-.161-.183-.245-.271-.069-.073-.149-.137-.214-.213a1.977,1.977,0,0,1-.357-1.365c0-2.089,0-4.178-.006-6.267a1.9,1.9,0,0,1,.743-1.844c.208-.132.156-.292-.086-.352a1.266,1.266,0,0,0-.307-.028c-.94,0-1.88,0-2.82.016a1.3,1.3,0,0,0-.365.118c.065.121.1.285.2.355a1.424,1.424,0,0,1,.624,1.234c.007.482.005.964,0,1.446q-.011,2.822-.024,5.645a1.443,1.443,0,0,1-.679,1.306c-.065.041-.14.143-.13.2a.294.294,0,0,0,.176.182,1.062,1.062,0,0,0,.339.034C181.948,403.755,182.373,403.753,182.8,403.753Z" transform="translate(0 -12.176)"/>
    <path id="Path_2186" data-name="Path 2186" d="M206.54,376.052c-.172.007-.343.021-.515.021H21c-.183,0-.366-.015-.549-.022v-6.133H206.54Z" fill="#fff"/>
    <path id="Path_2187" data-name="Path 2187" d="M20.451,454.641c.16-.007.32-.021.481-.021q92.564,0,185.128,0c.16,0,.32.013.481.021v6.133H20.451Z" transform="translate(0 -56.328)" fill="#fff"/>
    <path id="Path_2188" data-name="Path 2188" d="M45.836,409.878c0,1.3.005,2.595-.007,3.892,0,.141-.085.389-.156.4a.732.732,0,0,1-.484-.139c-.5-.366-.947-.8-1.463-1.133a5.372,5.372,0,0,0-2.8-.727c-.734-.026-1.47-.013-2.2-.052s-.887-.252-.786-.97c.177-1.262.375-2.52.557-3.781s.361-2.546.534-3.82c.074-.546.224-.63.775-.574.753.076,1.511.093,2.267.131a4.3,4.3,0,0,1,2.781,1.278c.142.133.28.27.425.4a1.929,1.929,0,0,1,.666,1.618c-.041,1.158-.011,2.319-.011,3.479Z" transform="translate(-11.612 -21.972)" fill="#fff"/>
    <path id="Path_2189" data-name="Path 2189" d="M62.528,409.33c0-1.2.01-2.41-.005-3.614A1.626,1.626,0,0,1,63,404.5a5.39,5.39,0,0,1,3.916-1.879,10.021,10.021,0,0,0,1.628-.252c.421-.071.561.043.617.458.15,1.125.319,2.247.468,3.373.145,1.091.27,2.185.412,3.277.05.386.135.768.184,1.154.069.541-.054.757-.587.86s-1.1.1-1.637.2c-1.127.194-2.258.38-3.369.646a2.82,2.82,0,0,0-1.558,1.019.458.458,0,0,1-.4.145c-.1-.039-.182-.249-.183-.385-.014-1.262-.008-2.525-.008-3.787Z" transform="translate(-27.952 -21.57)" fill="#fff"/>
    <path id="Path_2190" data-name="Path 2190" d="M259.772,413.5a6.405,6.405,0,0,1-3.555-1.139,5.052,5.052,0,0,1-.065-8.539,7.928,7.928,0,0,1,5.6-1.113,6.034,6.034,0,0,1,3.553,1.581,4.871,4.871,0,0,1,1.641,4.739,5.3,5.3,0,0,1-2.86,3.67A8.389,8.389,0,0,1,259.772,413.5Zm.686-9.612a6.366,6.366,0,0,0-1.026.1,4.191,4.191,0,0,0-2.8,2.151,3.971,3.971,0,0,0,.019,3.894,4.013,4.013,0,0,0,3.281,2.166,4.152,4.152,0,0,0,4.132-1.843,3.961,3.961,0,0,0,.548-3.329A4.2,4.2,0,0,0,260.458,403.892Z" transform="translate(-155.197 -21.75)" fill="#fff"/>
    <path id="Path_2191" data-name="Path 2191" d="M205.915,407.346q1.446,0,2.893,0c.411,0,.459-.042.46-.451,0-.666-.021-1.333.006-2a1.623,1.623,0,0,0-.654-1.439.987.987,0,0,1-.176-.295,1.007,1.007,0,0,1,.331-.136q1.532-.015,3.065,0a.9.9,0,0,1,.3.121c-.046.1-.067.231-.143.283a1.894,1.894,0,0,0-.7,1.771q-.006,3.014,0,6.028c0,.263.029.527.043.79a1.442,1.442,0,0,0,.58,1.087,1.013,1.013,0,0,1,.177.3,1.073,1.073,0,0,1-.352.145c-.953.015-1.906.014-2.859.014a.8.8,0,0,1-.3-.05.257.257,0,0,1-.147-.165c-.006-.055.064-.139.123-.176a1.431,1.431,0,0,0,.711-1.289c0-.976,0-1.952,0-2.928,0-.405-.068-.469-.451-.469q-2.842,0-5.683,0c-.609,0-.666.061-.666.673,0,.8-.022,1.608.01,2.411a1.67,1.67,0,0,0,.758,1.592c.212.118.133.28-.052.353a1.158,1.158,0,0,1-.407.044c-.861,0-1.722,0-2.583.005a.749.749,0,0,1-.273-.015,1.736,1.736,0,0,1-.3-.2,1.58,1.58,0,0,1,.212-.227,1.467,1.467,0,0,0,.637-1.264q-.007-1.808,0-3.617,0-1.723,0-3.444a1.474,1.474,0,0,0-.586-1.29c-.1-.077-.149-.234-.221-.354a1.331,1.331,0,0,1,.394-.137q1.446-.017,2.892,0a1.313,1.313,0,0,1,.372.121c-.066.122-.1.28-.2.359a1.819,1.819,0,0,0-.642,1.463c-.023.619-.01,1.24-.007,1.86,0,.4.078.483.486.485.987.005,1.975,0,2.962,0Z" transform="translate(-119.15 -22.014)" fill="#fff"/>
    <path id="Path_2192" data-name="Path 2192" d="M410.021,402.08c.841.167,1.684.325,2.522.505a1.966,1.966,0,0,0,1.147.045c.236-.087.4.016.429.289.06.628.132,1.256.174,1.886a.433.433,0,0,1-.16.357.443.443,0,0,1-.373-.129,4.792,4.792,0,0,0-3.386-1.549,3.128,3.128,0,0,0-2.235.6,1.243,1.243,0,0,0,.473,2.282,10.449,10.449,0,0,0,1.212.259c.792.131,1.594.212,2.38.374a3.71,3.71,0,0,1,2.533,1.505,2.6,2.6,0,0,1-.206,3.079,4.532,4.532,0,0,1-3.217,1.567,9.419,9.419,0,0,1-3.035-.286,15.27,15.27,0,0,0-1.824-.279,1.657,1.657,0,0,0-.535.109c-.283.069-.467-.027-.49-.315-.055-.686-.088-1.375-.114-2.063,0-.1.075-.274.134-.282a.6.6,0,0,1,.374.1c.462.3.89.655,1.374.908a6.062,6.062,0,0,0,3.686.862,2.778,2.778,0,0,0,1.76-.688,1.178,1.178,0,0,0-.543-2.064c-.874-.227-1.766-.384-2.654-.558a5.737,5.737,0,0,1-3.157-1.31,2.663,2.663,0,0,1-.423-3.288A3.958,3.958,0,0,1,409,402.209c.33-.039.665-.037,1-.053Z" transform="translate(-255.94 -21.388)" fill="#fff"/>
    <path id="Path_2193" data-name="Path 2193" d="M108.857,402.351a9.378,9.378,0,0,1,2.762.4,3,3,0,0,0,.907.021c.315-.036.527.063.556.391.055.617.088,1.236.11,1.855,0,.106-.083.3-.146.3a.476.476,0,0,1-.354-.136,4.621,4.621,0,0,0-2.1-1.319,3.742,3.742,0,0,0-3.516.381,1.17,1.17,0,0,0-.152,1.935,2.427,2.427,0,0,0,.994.435c1.069.212,2.15.363,3.224.551a3.585,3.585,0,0,1,2.62,1.643,2.785,2.785,0,0,1-.215,2.8,4.594,4.594,0,0,1-3.6,1.718,8.881,8.881,0,0,1-3.157-.422,3.376,3.376,0,0,0-1.9-.084c-.384.1-.511-.009-.532-.392-.035-.619-.086-1.237-.107-1.856a1.429,1.429,0,0,1,.128-.433,1.375,1.375,0,0,1,.42.163,7.328,7.328,0,0,0,4.139,1.771,3.437,3.437,0,0,0,2.434-.543,1.164,1.164,0,0,0,.406-1.7,1.43,1.43,0,0,0-.725-.526c-.792-.22-1.6-.389-2.41-.535a7.816,7.816,0,0,1-2.875-.88,2.742,2.742,0,0,1-1.118-3.483,3.137,3.137,0,0,1,1.494-1.517A4.877,4.877,0,0,1,108.857,402.351Z" transform="translate(-55.725 -21.556)" fill="#fff"/>
    <path id="Path_2194" data-name="Path 2194" d="M355.394,410.823c-.942,0-1.884.009-2.825-.005a.624.624,0,0,0-.638.36c-.228.436-.474.863-.715,1.292a.611.611,0,0,0,.014.679c.155.249.062.435-.227.444q-.964.029-1.929,0c-.108,0-.212-.133-.318-.2.072-.078.143-.157.216-.235a6.567,6.567,0,0,0,.847-.923c.671-1.08,1.3-2.189,1.933-3.29q1.119-1.936,2.227-3.879c.159-.278.307-.562.46-.843a.77.77,0,0,0,.046-.754c-.109-.227,0-.395.25-.4.482-.014.965-.021,1.445.01a.565.565,0,0,1,.379.252c.717,1.215,1.41,2.443,2.121,3.66,1.053,1.8,2.1,3.606,3.184,5.389a4.582,4.582,0,0,0,.824.795c.063.06.171.147.158.2a.387.387,0,0,1-.193.207.607.607,0,0,1-.269.035c-.815,0-1.631,0-2.446-.009a1.817,1.817,0,0,1-.443-.123,1.485,1.485,0,0,0,.152-.372,1.073,1.073,0,0,0-.02-.552c-.223-.476-.488-.934-.749-1.392a.651.651,0,0,0-.624-.347c-.953.013-1.906,0-2.86,0Zm.038-1.112v-.027c.378,0,.757,0,1.135,0s.734.017,1.1.015c.243,0,.39-.083.234-.356-.1-.178-.2-.358-.3-.538-.635-1.154-1.268-2.31-1.91-3.46a.46.46,0,0,0-.252-.193c-.044-.013-.147.09-.188.161q-1.141,1.959-2.273,3.923c-.2.34-.124.469.284.472C353.987,409.714,354.709,409.711,355.432,409.711Z" transform="translate(-218.327 -22.036)" fill="#fff"/>
    <path id="Path_2195" data-name="Path 2195" d="M156.426,413.372a6.613,6.613,0,0,1-3.7-.9,5.367,5.367,0,0,1-2.744-3.214,4.765,4.765,0,0,1,1.152-4.694,6.707,6.707,0,0,1,4.739-2.13,9.192,9.192,0,0,1,3.619.56.857.857,0,0,1,.665.887c0,.286.061.572.057.858a2.613,2.613,0,0,1-.12.535,2.079,2.079,0,0,1-.432-.23,5.284,5.284,0,0,0-1.884-1.109,4.449,4.449,0,0,0-3.348.216,4.059,4.059,0,0,0-2.156,2.306,3.759,3.759,0,0,0,.384,3.561A4.233,4.233,0,0,0,156.93,412a6,6,0,0,0,2.957-1.286,2.586,2.586,0,0,1,.359-.264.32.32,0,0,1,.256.006c.045.023.071.14.059.206-.1.529-.177,1.065-.325,1.58a.819.819,0,0,1-.427.482A8.074,8.074,0,0,1,156.426,413.372Z" transform="translate(-86.007 -21.615)" fill="#fff"/>
    <path id="Path_2196" data-name="Path 2196" d="M534.854,413.388a7.306,7.306,0,0,1-5.537-2.111,4.709,4.709,0,0,1-.935-5.406,5.666,5.666,0,0,1,3.277-2.933,7.741,7.741,0,0,1,3.309-.5,8.536,8.536,0,0,1,2.865.679.627.627,0,0,1,.4.58c.032.387.119.77.147,1.158a1.239,1.239,0,0,1-.131.422c-.132-.045-.3-.052-.389-.141a4.384,4.384,0,0,0-2.041-1.228,4.478,4.478,0,0,0-3.877.606,3.87,3.87,0,0,0-1.525,1.94,4,4,0,0,0,1.109,4.453,4.246,4.246,0,0,0,4.028,1.018,6.225,6.225,0,0,0,2.51-1.234,2.269,2.269,0,0,1,.53-.24,2.911,2.911,0,0,1,.045.581c-.039.329-.148.65-.179.979a.846.846,0,0,1-.607.757A8.736,8.736,0,0,1,534.854,413.388Z" transform="translate(-337.469 -21.61)" fill="#fff"/>
    <path id="Path_2197" data-name="Path 2197" d="M456.329,407.689c0,1.137,0,2.274,0,3.411a1.407,1.407,0,0,0,.7,1.4c.059.031.127.134.115.186a.3.3,0,0,1-.163.19.972.972,0,0,1-.339.039q-1.327,0-2.653,0a1.07,1.07,0,0,1-.34-.033.293.293,0,0,1-.181-.176.269.269,0,0,1,.13-.208,1.416,1.416,0,0,0,.7-1.369c.014-2.343,0-4.686.008-7.029,0-.292-.131-.43-.411-.429-.93,0-1.861-.007-2.79.019a4.561,4.561,0,0,0-.73.185,1.436,1.436,0,0,1-.352-.014c.021-.116.005-.261.069-.343.359-.461.738-.906,1.108-1.358.157-.191.308-.187.54-.086a2.715,2.715,0,0,0,1.01.267q3.29.04,6.581.012a13.482,13.482,0,0,0,1.36-.186,1.8,1.8,0,0,1,.449.063,1.355,1.355,0,0,1-.128.4c-.289.4-.6.782-.9,1.171-.172.221-.352.223-.6.09a1.726,1.726,0,0,0-.712-.207c-.665-.03-1.332,0-2-.022-.331-.009-.449.125-.446.447.009,1.195,0,2.389,0,3.584Z" transform="translate(-285.668 -21.334)" fill="#fff"/>
    <path id="Path_2198" data-name="Path 2198" d="M315.811,412.446c.482,0,.965-.012,1.447,0a3.255,3.255,0,0,0,1.95-.67,1.045,1.045,0,0,1,.337-.085c.017.13.083.278.043.386-.187.5-.39,1-.613,1.485-.193.421-.283.406-.726.286a5.661,5.661,0,0,0-1.387-.215c-1.8-.024-3.606-.01-5.409-.011a1.14,1.14,0,0,1-.308-.005,2.071,2.071,0,0,1-.345-.171,1.6,1.6,0,0,1,.234-.287,1.492,1.492,0,0,0,.572-1.224c.017-1.125.006-2.251.006-3.376,0-1.229-.007-2.458,0-3.686a1.48,1.48,0,0,0-.615-1.307c-.094-.069-.129-.219-.192-.332a1.149,1.149,0,0,1,.363-.139q1.531-.02,3.063-.005a1.128,1.128,0,0,1,.381.162c-.076.117-.125.28-.232.343a1.422,1.422,0,0,0-.708,1.357c.006,2.343,0,4.685,0,7.028,0,.4.055.465.45.468.562,0,1.125,0,1.688,0Z" transform="translate(-193.086 -22.056)" fill="#fff"/>
    <path id="Path_2199" data-name="Path 2199" d="M501.532,413.647c-.424,0-.849,0-1.274,0a1.062,1.062,0,0,1-.339-.034.294.294,0,0,1-.176-.182c-.01-.061.066-.163.13-.2a1.443,1.443,0,0,0,.679-1.306q.009-2.822.024-5.645c0-.482,0-.964,0-1.446a1.424,1.424,0,0,0-.624-1.234c-.1-.07-.135-.234-.2-.355a1.3,1.3,0,0,1,.365-.118c.94-.014,1.88-.014,2.82-.016a1.264,1.264,0,0,1,.307.029c.242.061.294.22.086.352a1.9,1.9,0,0,0-.743,1.844c.006,2.089,0,4.178.006,6.267a1.977,1.977,0,0,0,.357,1.365c.065.076.145.14.214.213.084.088.164.181.245.271a1.346,1.346,0,0,1-.4.2,4.379,4.379,0,0,1-.652-.014c-.275,0-.551,0-.826,0Z" transform="translate(-318.735 -22.07)" fill="#fff"/>
    <path id="Path_2200" data-name="Path 2200" d="M265.029,406.408a4.2,4.2,0,0,1,4.149,3.136,3.961,3.961,0,0,1-.548,3.329,4.152,4.152,0,0,1-4.132,1.843,4.013,4.013,0,0,1-3.281-2.166,3.971,3.971,0,0,1-.019-3.894,4.191,4.191,0,0,1,2.8-2.151A6.362,6.362,0,0,1,265.029,406.408Z" transform="translate(-159.768 -24.266)"/>
    <path id="Path_2201" data-name="Path 2201" d="M363.609,413.874c-.723,0-1.445,0-2.168,0-.407,0-.481-.132-.284-.472q1.135-1.963,2.273-3.923c.041-.071.144-.174.188-.161a.46.46,0,0,1,.252.193c.642,1.15,1.275,2.306,1.91,3.46.1.18.2.36.3.538.156.273.009.355-.234.356-.367,0-.734-.012-1.1-.015s-.757,0-1.135,0Z" transform="translate(-226.504 -26.2)"/>
  </g>
</svg>
