<svg xmlns="http://www.w3.org/2000/svg" width="133.85" height="23.652" viewBox="0 0 133.85 23.652">
  <path id="wacom-logo-svg-vector" d="M40.4.025a13.047,13.047,0,0,0-5.271.8l-.246.089,1.5,2.658.179-.067a10.77,10.77,0,0,1,4.244-.558h2.233c3.266,0,5.137,1.626,5.137,4.489v8.8c0,2.861-1.871,4.489-5.137,4.489H39.4c-3.348,0-4.981-1.342-4.981-4.132,0-2.768,1.633-4.109,4.981-4.109h5.07V9.54H39.242c-4.969,0-7.817,2.584-7.817,7.08,0,4.347,3,7.058,7.817,7.058h3.931c5.487,0,8-3.662,8-7.058V7.061c0-3.4-2.509-7.036-8-7.036H40.4Zm22.111,0c-5.487,0-8,3.641-8,7.035V16.62c0,3.4,2.508,7.058,8,7.058h3.4c2.8,0,4.627-.408,6.1-1.362l.179-.134-1.7-2.479-.179.112c-1.1.665-2.485.916-4.78.916H62.648c-3.313,0-5.137-1.586-5.137-4.489V7.44c0-2.9,1.825-4.489,5.137-4.489h2.881a8.91,8.91,0,0,1,4.78.938L70.488,4l1.7-2.5-.179-.112c-1.47-.953-3.3-1.362-6.1-1.362H62.514ZM82.1.025c-5.505,0-8.018,3.641-8.018,7.035V16.62c0,3.4,2.508,7.058,8,7.058H86.01c5.488,0,7.973-3.662,7.973-7.058V7.061c0-3.394-2.509-7.036-8.018-7.036H82.1ZM105.307.07c-4.735,0-7.795,2.688-7.795,6.834V23.566h2.993V7.284c0-2.881,1.61-4.288,4.936-4.288,3.155,0,4.891,1.437,4.891,4.02v16.55h2.993V7.016c0-2.584,1.737-4.02,4.891-4.02,3.328,0,4.958,1.407,4.958,4.288V23.566h2.971V6.9c0-4.147-3.062-6.834-7.795-6.834-3.159,0-5.067.781-6.522,2.658C110.376.851,108.462.07,105.307.07ZM0,.181V16.843c0,4.146,3.06,6.834,7.795,6.834,3.155,0,5.069-.779,6.522-2.658,1.454,1.879,3.366,2.658,6.522,2.658,4.733,0,7.795-2.688,7.795-6.834V.181H25.662V16.463c0,2.88-1.632,4.266-4.958,4.266-3.154,0-4.891-1.416-4.891-4V.181H12.842v16.55c0,2.581-1.737,4-4.891,4-3.326,0-4.958-1.386-4.958-4.266V.182H0Zm131.572,0a2.2,2.2,0,0,0-1.608.67,2.191,2.191,0,0,0-.67,1.608,2.251,2.251,0,0,0,.67,1.63,2.265,2.265,0,0,0,3.216,0,2.235,2.235,0,0,0,.67-1.63,2.18,2.18,0,0,0-.67-1.608,2.193,2.193,0,0,0-1.608-.67Zm0,.313a1.874,1.874,0,0,1,1.385.581,1.949,1.949,0,0,1,.581,1.407,1.9,1.9,0,0,1-.581,1.385,1.941,1.941,0,0,1-2.77,0,1.9,1.9,0,0,1-.581-1.385,1.947,1.947,0,0,1,.581-1.407,1.879,1.879,0,0,1,1.385-.581Zm-.916.715v2.5h.424V2.727h.357a1.049,1.049,0,0,1,.491.089c.157.093.223.268.223.558v.2l.022.089c0,.011,0,.014,0,.022s0,.013,0,.022h.424l-.022-.022a.4.4,0,0,1-.022-.134c0-.066,0-.12,0-.179v-.2a.65.65,0,0,0-.134-.38A.591.591,0,0,0,132,2.549a.927.927,0,0,0,.357-.112.58.58,0,0,0,.246-.514.619.619,0,0,0-.4-.625,1.812,1.812,0,0,0-.67-.089h-.871Zm.424.29h.38a1.1,1.1,0,0,1,.536.112.372.372,0,0,1,.179.357.4.4,0,0,1-.268.4,1.284,1.284,0,0,1-.424.045h-.4V1.5ZM82.213,2.951h3.64c3.266,0,5.137,1.626,5.137,4.489v8.8c0,2.861-1.871,4.489-5.137,4.489h-3.64c-3.314,0-5.137-1.586-5.137-4.489V7.44c0-2.863,1.872-4.489,5.137-4.489Z" transform="translate(0 -0.025)"/>
</svg>
