<svg xmlns="http://www.w3.org/2000/svg" width="137.324" height="23.761" viewBox="0 0 137.324 23.761">
  <g id="Group_530" data-name="Group 530" transform="translate(-608.096 -133.664)">
    <path id="Path_2226" data-name="Path 2226" d="M713.358,147.251h-2.267v-4.37h2.267a2.7,2.7,0,0,0,2.7-2.7v-1.326l4.369-1.063v2.389a7.073,7.073,0,0,1-7.065,7.066" transform="translate(-48.79 -0.424)" fill="#231f20"/>
    <path id="Path_2227" data-name="Path 2227" d="M722.836,163.483h-4.369v-6.509a7.074,7.074,0,0,1,7.066-7.065H727.8v4.37h-2.267a2.7,2.7,0,0,0-2.7,2.7Z" transform="translate(-52.285 -6.162)" fill="#231f20"/>
    <path id="Path_2228" data-name="Path 2228" d="M620.829,150.843a10.994,10.994,0,0,1-.326,2.722,5.23,5.23,0,0,1-3.319,3.729,9.358,9.358,0,0,1-3.473.554,10.532,10.532,0,0,1-3.319-.466,9.412,9.412,0,0,1-2.3-1.094l1.475-3.431a12.775,12.775,0,0,0,1.757.849,5.541,5.541,0,0,0,2.043.369,2.984,2.984,0,0,0,2.325-.794,3.987,3.987,0,0,0,.71-2.668V137.8h4.423Z" transform="translate(0 -0.424)" fill="#231f20"/>
    <path id="Path_2229" data-name="Path 2229" d="M651.8,153.868a9.663,9.663,0,0,1-.511,3.218,6.99,6.99,0,0,1-1.475,2.5,6.627,6.627,0,0,1-2.311,1.6,8.241,8.241,0,0,1-6.012,0,6.622,6.622,0,0,1-2.311-1.6,7.318,7.318,0,0,1-1.5-2.5,9.216,9.216,0,0,1-.538-3.218,8.894,8.894,0,0,1,.553-3.2,7.283,7.283,0,0,1,1.531-2.468,6.928,6.928,0,0,1,2.326-1.589,7.468,7.468,0,0,1,2.935-.568,7.546,7.546,0,0,1,2.964.568,6.759,6.759,0,0,1,2.311,1.589,7.236,7.236,0,0,1,1.5,2.468,9.126,9.126,0,0,1,.538,3.2m-4.311,0a5.311,5.311,0,0,0-.78-3.079,2.548,2.548,0,0,0-2.226-1.117,2.587,2.587,0,0,0-2.24,1.117,5.247,5.247,0,0,0-.8,3.079,5.382,5.382,0,0,0,.8,3.107,2.563,2.563,0,0,0,2.24,1.147,2.525,2.525,0,0,0,2.226-1.147,5.448,5.448,0,0,0,.78-3.107" transform="translate(-13.76 -4.328)" fill="#231f20"/>
    <rect id="Rectangle_698" data-name="Rectangle 698" width="4.226" height="15.629" transform="translate(640.597 141.693)" fill="#231f20"/>
    <path id="Path_2230" data-name="Path 2230" d="M684.078,147a23.592,23.592,0,0,1,2.78-.582,22.779,22.779,0,0,1,3.573-.271,8.715,8.715,0,0,1,3.162.5,4.765,4.765,0,0,1,2,1.4,5.465,5.465,0,0,1,1.048,2.156,11.4,11.4,0,0,1,.313,2.779V161.7h-4.226v-8.207a5.708,5.708,0,0,0-.539-2.894,2.2,2.2,0,0,0-2.014-.849c-.3,0-.625.014-.964.042s-.644.062-.908.1V161.7h-4.226Z" transform="translate(-35.994 -4.38)" fill="#231f20"/>
    <path id="Path_2231" data-name="Path 2231" d="M752.184,157.407q-4.794,0-7.3-2.666t-2.51-7.573a11.652,11.652,0,0,1,.765-4.352,9.377,9.377,0,0,1,2.1-3.234,8.776,8.776,0,0,1,3.176-2,11.471,11.471,0,0,1,4-.68,12.743,12.743,0,0,1,2.269.184,14.661,14.661,0,0,1,1.787.425,8.975,8.975,0,0,1,1.276.5c.341.171.586.3.738.4L757.2,141.98a10.686,10.686,0,0,0-2.114-.825,10.063,10.063,0,0,0-2.736-.338,6.023,6.023,0,0,0-2,.338,4.546,4.546,0,0,0-1.731,1.093,5.457,5.457,0,0,0-1.206,1.943,8.165,8.165,0,0,0-.453,2.892,10.378,10.378,0,0,0,.3,2.54,5.385,5.385,0,0,0,.965,2.028A4.629,4.629,0,0,0,749.972,153a6.192,6.192,0,0,0,2.609.5,11.874,11.874,0,0,0,1.73-.113,12.693,12.693,0,0,0,1.362-.271,7.012,7.012,0,0,0,1.049-.353c.3-.132.577-.256.822-.369l1.221,3.545a10.364,10.364,0,0,1-2.639,1.021,15.386,15.386,0,0,1-3.942.455" transform="translate(-63.608)" fill="#231f20"/>
    <path id="Path_2232" data-name="Path 2232" d="M782.026,146.007a9.772,9.772,0,0,1,3.12.426,4.86,4.86,0,0,1,2,1.219,4.5,4.5,0,0,1,1.064,1.93,9.47,9.47,0,0,1,.312,2.522V160.9q-.907.2-2.523.467a24.163,24.163,0,0,1-3.915.269,12.536,12.536,0,0,1-2.623-.253,5.721,5.721,0,0,1-2.028-.838,3.824,3.824,0,0,1-1.305-1.517,5.247,5.247,0,0,1-.454-2.3,4.347,4.347,0,0,1,.525-2.211,4.044,4.044,0,0,1,1.4-1.447,6.394,6.394,0,0,1,2.014-.78,11.411,11.411,0,0,1,2.354-.24,13.093,13.093,0,0,1,1.461.071,6.792,6.792,0,0,1,1.035.183v-.4a2.34,2.34,0,0,0-.653-1.729,3.152,3.152,0,0,0-2.269-.653,14.5,14.5,0,0,0-2.127.157,9.029,9.029,0,0,0-1.815.438l-.538-3.4c.245-.075.554-.156.922-.242s.77-.158,1.207-.226.893-.123,1.375-.171.968-.071,1.459-.071m.34,12.366q.624,0,1.191-.028a8.412,8.412,0,0,0,.908-.085v-3.206c-.17-.037-.426-.074-.766-.114a8.87,8.87,0,0,0-.936-.054,8.564,8.564,0,0,0-1.121.068,2.992,2.992,0,0,0-.921.27,1.559,1.559,0,0,0-.624.54,1.494,1.494,0,0,0-.227.849,1.445,1.445,0,0,0,.667,1.375,3.667,3.667,0,0,0,1.829.384" transform="translate(-79.384 -4.313)" fill="#231f20"/>
    <path id="Path_2233" data-name="Path 2233" d="M815,150.227c-.378-.093-.823-.194-1.333-.3a8.119,8.119,0,0,0-1.646-.157,7.891,7.891,0,0,0-.95.069,5.969,5.969,0,0,0-.837.157v11.713h-4.226V147.278a25.981,25.981,0,0,1,2.68-.752,15.39,15.39,0,0,1,3.446-.352c.226,0,.5.014.823.041s.642.064.964.114.643.1.965.168a4.742,4.742,0,0,1,.821.243Z" transform="translate(-93.756 -4.392)" fill="#231f20"/>
    <path id="Path_2234" data-name="Path 2234" d="M825.522,153.976a9.119,9.119,0,0,1,.609-3.473,7.428,7.428,0,0,1,1.6-2.481,6.655,6.655,0,0,1,2.283-1.5,7.148,7.148,0,0,1,2.652-.511,6.592,6.592,0,0,1,5.02,1.943,8.011,8.011,0,0,1,1.843,5.715c0,.247-.009.517-.027.807s-.038.554-.057.781h-9.586a2.808,2.808,0,0,0,1.219,2.07,4.889,4.889,0,0,0,2.893.765,12.19,12.19,0,0,0,2.283-.212,8.56,8.56,0,0,0,1.829-.523l.568,3.432a5.852,5.852,0,0,1-.908.339,12.011,12.011,0,0,1-1.261.3q-.7.126-1.49.212a14.727,14.727,0,0,1-1.588.085,9.394,9.394,0,0,1-3.5-.6,6.794,6.794,0,0,1-2.468-1.632,6.487,6.487,0,0,1-1.447-2.451,9.747,9.747,0,0,1-.467-3.065m9.927-1.616a4.413,4.413,0,0,0-.185-1.05,2.669,2.669,0,0,0-.482-.907,2.59,2.59,0,0,0-.823-.653,2.7,2.7,0,0,0-1.234-.254,2.856,2.856,0,0,0-1.219.241,2.535,2.535,0,0,0-.851.639,2.855,2.855,0,0,0-.524.921,5.946,5.946,0,0,0-.269,1.063Z" transform="translate(-102.998 -4.313)" fill="#231f20"/>
    <text id="TM" transform="translate(737.42 138.663)" fill="#231f20" font-size="5" font-family="Ubuntu-Medium, Ubuntu" font-weight="500"><tspan x="0" y="0">TM</tspan></text>
  </g>
</svg>
