<svg xmlns="http://www.w3.org/2000/svg" width="72.513" height="48.901" viewBox="0 0 72.513 48.901">
  <g id="FitnFine_Logo_guideline_01" data-name="FitnFine_Logo_guideline 01" transform="translate(-215.5 -159.1)">
    <path id="Path_2281" data-name="Path 2281" d="M404.153,188.177l6.653-.706,2.982-14.065,6.141-.635.971-4.571-18.812,1.977-.988,4.571,6.053-.635Z" transform="translate(-152.846 -7.494)" fill="#231f20"/>
    <path id="Path_2282" data-name="Path 2282" d="M361.413,194.4l-6.635.688-1.906,9.018-4.165-8.382-6.106.653-3.812,18h0l-1.906,9.035-4.165-8.382-3.441.353,3.794-18.018-6.618.706-3.812,18.018-5.188.529L313.5,235.254l6.635-.688,3.812-18.018,2.524-.265L322.659,234.3l6.635-.706,1.924-9.035,4.182,8.4,6.071-.635,3.829-18.018,1.906-9.035,3.9,7.818-3.459.371-3.953,18.618,15.812-1.659.971-4.553-9.177.971.6-2.788,7.765-.812.935-4.429-7.765.812.494-2.294,9.194-.971.953-4.571-5.894.618Z" transform="translate(-80.706 -29.07)" fill="#231f20"/>
    <path id="Path_2283" data-name="Path 2283" d="M225.118,240.189l8.753-.918.971-4.571-3.177.335,1.341-6.282,7.959-.829.971-4.553-7.959.829.547-2.612,8.771-.935.971-4.553-15.424,1.606-3.812,18.018-5.594.6L215.5,254.942l6.635-.688,1.465-6.882,7.959-.847.971-4.553-7.959.829Z" transform="translate(0 -46.941)" fill="#231f20"/>
    <path id="Path_2284" data-name="Path 2284" d="M590.353,159.629l-1.553,8.153,4.571-.476,1.5-5.277.565-2.929Z" transform="translate(-307.422)" fill="#231f20"/>
  </g>
</svg>
