<svg id="CrpLogo08Hz" xmlns="http://www.w3.org/2000/svg" width="193.961" height="30.15" viewBox="0 0 193.961 30.15">
  <g id="_R_" data-name="(R)" transform="translate(189.98 20.634)">
    <path id="Path_1019" data-name="Path 1019" d="M468.866,431.061a1.98,1.98,0,1,1-2,1.97A1.968,1.968,0,0,1,468.866,431.061Zm0,3.669a1.69,1.69,0,1,0-1.637-1.7A1.633,1.633,0,0,0,468.866,434.73Zm-.774-2.848h.9c.551,0,.811.217.811.662a.6.6,0,0,1-.609.63l.662,1.021h-.386l-.63-1h-.38v1h-.36v-2.314Zm.361,1.027h.376c.318,0,.608-.016.608-.38,0-.308-.264-.354-.509-.354h-.475Z" transform="translate(-466.87 -431.061)"/>
  </g>
  <g id="Herbalife" transform="translate(38.463 5.733)">
    <path id="Path_1020" data-name="Path 1020" d="M206.405,422.509h-3.74v-8.937H194.9v8.937h-3.739V403.945H194.9v7.134h7.772v-7.134h3.74v18.564Z" transform="translate(-191.156 -403.945)"/>
    <path id="Path_1021" data-name="Path 1021" d="M241.144,406.439h-6.232v5.091h6.1v2.493h-6.1v5.993h7.373v2.493H231.171V403.945h9.971v2.494Z" transform="translate(-209.181 -403.945)"/>
    <path id="Path_1022" data-name="Path 1022" d="M261.586,403.945h6.445c3.554,0,5.942,1.7,5.942,4.854a5.852,5.852,0,0,1-3.13,5.383l4.616,8.327-4.3,0-3.605-7.423h-2.227v7.425h-3.741V403.945Zm3.74,8.647h1.511a3.217,3.217,0,0,0,3.4-3.342,2.662,2.662,0,0,0-2.971-2.81h-1.935v6.152Z" transform="translate(-222.881 -403.945)"/>
    <path id="Path_1023" data-name="Path 1023" d="M295.329,422.509V403.945h6.71c3.129,0,5.331,1.433,5.331,3.952a4.714,4.714,0,0,1-3.714,4.535v.053c2.307.106,4.879,1.7,4.879,4.534,0,3.209-2.678,5.489-7.055,5.489Zm3.738-10.822h1.168c2.149,0,3.606-1.379,3.606-3.1,0-1.643-1.221-2.36-2.838-2.36h-1.935v5.463Zm0,8.542h1.911c2.069,0,3.633-1.088,3.633-3.156,0-2.175-1.617-3.1-3.66-3.1h-1.884v6.26Z" transform="translate(-238.081 -403.945)"/>
    <path id="Path_1024" data-name="Path 1024" d="M335.5,403.945l6.975,18.564h-4.19l-1.724-5.065h-6.579l-1.91,5.065h-3.236l7.56-18.564Zm.5,11.219c-.8-2.438-1.593-4.694-2.466-7.56h-.054c-.768,2.865-1.644,5.12-2.519,7.56Z" transform="translate(-251.374 -403.945)"/>
    <path id="Path_1025" data-name="Path 1025" d="M365.247,403.945h3.74v16.071h7.374v2.493H365.246V403.945Z" transform="translate(-269.576 -403.945)"/>
    <path id="Path_1026" data-name="Path 1026" d="M394.552,422.509V403.945h3.74v18.564Z" transform="translate(-282.777 -403.945)"/>
    <path id="Path_1027" data-name="Path 1027" d="M423.569,406.439h-6.206v6.1h6.1v2.49h-6.1v7.479h-3.74V403.945h9.946Z" transform="translate(-291.367 -403.945)"/>
    <path id="Path_1028" data-name="Path 1028" d="M451.374,406.439H445.14v5.091h6.1v2.493h-6.1v5.993h7.374v2.493H441.4V403.945h9.972v2.494Z" transform="translate(-303.88 -403.945)"/>
  </g>
  <g id="Circle_Tri-leaf" data-name="Circle Tri-leaf" transform="translate(0 0)">
    <path id="Path_1029" data-name="Path 1029" d="M136.243,422.741a14.152,14.152,0,1,1,14.139-14.15A14.146,14.146,0,0,1,136.243,422.741Zm0-29.227a15.075,15.075,0,1,0,15.067,15.079A15.081,15.081,0,0,0,136.243,393.513Z" transform="translate(-121.166 -393.513)"/>
    <g id="Group_262" data-name="Group 262" transform="translate(2.086 1.707)">
      <path id="Path_1030" data-name="Path 1030" d="M124.962,420.774c5.144,1.618,10,6.638,11.464,13.054A12.993,12.993,0,0,1,124.962,420.774Z" transform="translate(-124.962 -407.5)"/>
      <path id="Path_1031" data-name="Path 1031" d="M162.711,420.774a17.929,17.929,0,0,0-11.463,13.054A12.994,12.994,0,0,0,162.711,420.774Z" transform="translate(-136.803 -407.5)"/>
      <path id="Path_1032" data-name="Path 1032" d="M145.546,422.947c-5.483-8.464-4.3-20.075.005-26.328C149.657,402.872,150.942,414.481,145.546,422.947Z" transform="translate(-132.576 -396.619)"/>
    </g>
  </g>
</svg>
